<?xml version="1.0" encoding="utf-8"?>
<!-- Generator: Adobe Illustrator 24.1.0, SVG Export Plug-In . SVG Version: 6.00 Build 0)  -->
<svg version="1.1" id="Capa_1" xmlns="http://www.w3.org/2000/svg" xmlns:xlink="http://www.w3.org/1999/xlink" x="0px" y="0px"
	 viewBox="0 0 270 83" style="enable-background:new 0 0 270 83;" xml:space="preserve">
<style type="text/css">
	.st0{fill:#FFBC25;}
	.st1{fill:#FBBB2C;}
	.st2{fill:url(#SVGID_1_);}
	.st3{fill:url(#SVGID_2_);}
	.st4{fill:#FFBD23;stroke:#B17B3B;stroke-width:0.5;stroke-miterlimit:10;}
	.st5{fill:#1D1D1B;}
	.st6{fill:#FFBC25;stroke:#B17B3A;stroke-width:0.25;stroke-miterlimit:10;}
	.st7{fill:#ED3237;}
	.st8{fill:#FFFFFF;}
</style>
<g>
	<g>
		<g>
			<path class="st0" d="M221.1,79.6c0,0,0,0-0.1,0.1c-0.2,0-0.6,0-1.2,0c-0.6,0-0.9,0-1.1,0c-0.1,0-0.1,0-0.2,0c0,0-0.1,0-0.1-0.1
				c-0.1-0.2-0.2-0.4-0.3-0.7c-0.2-0.4-0.4-1-0.8-1.8c-0.1-0.2-0.3-0.2-0.5-0.3c0.1,0-0.1,0-0.7,0c-0.1,0-0.1,0.1-0.1,0.3
				c0,0.3,0,0.7,0.1,1.2s0.1,1,0.1,1.2c0,0.1,0,0.1-0.1,0.1c-0.1,0-0.1,0-0.2,0c-0.3,0-0.6,0-1.2,0c-0.6,0-1,0-1.1,0
				c-0.1,0-0.2-0.1-0.2-0.2c0-0.4,0-1.1,0.1-2c0-0.9,0.1-1.6,0.1-2c0-1.7,0-3.1-0.1-4l0-0.1c0-0.1,0.1-0.1,0.2-0.1
				c0.1,0,0.8,0,2-0.1c0.8,0,1.4,0,1.9,0c1,0,1.8,0.2,2.4,0.6c0.7,0.5,1,1.2,1,2.1c0,0.6-0.1,1.1-0.3,1.4c-0.2,0.4-0.5,0.7-1,1
				c-0.1,0.1-0.1,0.1-0.1,0.2c0,0,0.3,0.5,0.8,1.5C220.9,78.9,221.1,79.5,221.1,79.6z M218.4,74.1c0-0.5-0.2-0.8-0.5-1
				c-0.3-0.1-0.7-0.2-1.2-0.2c-0.4,0-0.6,0.1-0.6,0.2c0,0.1,0,0.5,0,1.2c0,0.1,0,0.2,0,0.4c0,0.2,0,0.3,0,0.4c0,0,0.1,0,0.2,0.1
				c0.3,0,0.5,0.1,0.8,0.1C218,75.2,218.4,74.8,218.4,74.1z"/>
		</g>
		<g>
			<path class="st1" d="M217.3,83c-4.2,0-7.6-3.4-7.6-7.6s3.4-7.6,7.6-7.6c4.2,0,7.6,3.4,7.6,7.6C225,79.6,221.5,83,217.3,83z
				 M217.3,69c-3.5,0-6.4,2.9-6.4,6.4c0,3.5,2.9,6.4,6.4,6.4c3.5,0,6.4-2.9,6.4-6.4C223.7,71.9,220.8,69,217.3,69z"/>
		</g>
	</g>
	
		<linearGradient id="SVGID_1_" gradientUnits="userSpaceOnUse" x1="134.5761" y1="39.3023" x2="134.8714" y2="69.327" gradientTransform="matrix(1 0 0 -1 0 85.44)">
		<stop  offset="1.300000e-02" style="stop-color:#D51324"/>
		<stop  offset="0.2805" style="stop-color:#D21323"/>
		<stop  offset="0.5132" style="stop-color:#C71322"/>
		<stop  offset="0.7329" style="stop-color:#B5121F"/>
		<stop  offset="0.9436" style="stop-color:#9C111B"/>
		<stop  offset="1" style="stop-color:#94111A"/>
	</linearGradient>
	<path class="st2" d="M264.5,27.6c-1.4-5.7-3.4-10-8.1-11.3c-11.7-3.3-26.7-0.7-26.7-0.7s-49.4,8.3-93.3,9.1
		c-45.6,0.8-99.8-8.9-114.6-11.9C10.4,10.5,9.3,14.9,5,26.2c-1.7,12-0.7,23.2,2.8,35.7c1.4,4.9,6.6,7.7,11.3,6.1
		c71.6-24.9,159.6-24.2,231.3-0.2c4.8,1.6,9.9-1.2,11.2-6.1C265,49.7,265.9,38.9,264.5,27.6z"/>
	
		<linearGradient id="SVGID_2_" gradientUnits="userSpaceOnUse" x1="134.7596" y1="57.1141" x2="134.7596" y2="84.3841" gradientTransform="matrix(1 0 0 -1 0 85.44)">
		<stop  offset="0" style="stop-color:#A31122"/>
		<stop  offset="0.844" style="stop-color:#891419"/>
	</linearGradient>
	<path class="st3" d="M21.8,12.9c14.8,3,69.1,12.7,114.6,11.9c43.9-0.8,93.3-9.1,93.3-9.1s15-2.6,26.7,0.7c4.7,1.3,6.7,5.6,8.1,11.3
		c-0.5-4.3-1.4-8.7-2.6-13.3c-1.3-4.8-6-7.6-10.7-6.4C174.4,27.5,95,27.5,18.2,7.6C13.6,6.4,8.8,9.2,7.5,14c-1.1,4.2-2,8.2-2.5,12.2
		C9.3,14.9,10.4,10.5,21.8,12.9z"/>
	<path class="st4" d="M263,5.6c-1.9-4.5-6.9-6.7-11.4-5C216.6,14,177.1,18.9,137.6,19.2C96.3,19.6,54.9,14.9,18.3,0.7
		c-4.5-1.8-9.6,0.4-11.4,5C-2.3,28.3-2.3,47,6.7,69.4c1.9,4.7,7.2,6.9,11.8,4.8C52.9,58.5,95.2,52,137.2,52.4
		c40.6,0.4,81,7.1,114.3,21.9c4.5,2,9.9-0.2,11.7-4.9C272.3,46.9,272.2,28.1,263,5.6z M261.6,61.7c-1.4,4.9-6.5,7.7-11.2,6.1
		C178.7,43.8,90.7,43.1,19.1,68c-4.8,1.7-9.9-1.1-11.3-6.1C4.2,49.4,3.3,38.2,5,26.2c0.6-4,1.4-8,2.5-12.2c1.3-4.8,6.1-7.6,10.8-6.4
		C95,27.5,174.4,27.5,251.2,7.8c4.7-1.2,9.5,1.6,10.7,6.4c1.2,4.6,2.1,9,2.6,13.3C265.9,38.9,265,49.7,261.6,61.7z"/>
	<g>
		<path class="st5" d="M23.4,20.5c1-0.2,2.3-0.1,3.9,0.1c2.4,0.3,4.1,0.7,5.2,1.3c2.4,1.4,4,3.6,5,6.7c0.3,0.9,0.6,2.1,0.9,3.4
			c0.3,1.4,0.5,2.3,0.5,2.9c0,0.2,0,0.4-0.1,0.4c-0.3,0.1-1.4,0.2-3.5,0.4C33.2,35.9,31.8,36,31,36c-0.1,0-0.2,0-0.3,0
			c-0.1,0-0.1,0-0.1,0c-0.1-0.1-0.3-0.5-0.4-1c-0.2-1.3-1-2.3-2.2-3.2c-0.6-0.4-1.3-0.5-2.3-0.6c-1.5,0-2.6,0.3-3.5,0.9
			c-1.8,1.4-2.8,3.7-2.7,6.8c0.1,3.1,1.4,5.5,3.4,7c1.5,1.1,2.8,1.6,4,1.4c0.3,0,0.6-0.1,0.9-0.3c0.4-0.2,0.9-0.7,1.5-1.4
			c0.6-0.7,1-1.4,1.2-2c0.1-0.3,0.5-0.4,1.2-0.5c0.8-0.1,2-0.1,3.5-0.1c3,0,4.5,0,4.6,0c0.1,0.1-0.1,1-0.7,2.7c-0.6,1.7-1,3-1.4,3.9
			c-1.2,2.5-2.5,4.2-4.3,5c-0.6,0.3-1.4,0.5-2.5,0.7c-2.5,0.5-4.7,0.8-6.6,0.8c-3.3,0-6.4-1.4-8.8-4.6c-1-1.3-2-3.3-2.9-6.3
			s-1.3-5.8-1.4-8.4c-0.1-4.7,1.3-8.7,3.6-11.6C17.1,22.5,20.1,20.9,23.4,20.5z"/>
		<path class="st5" d="M55.9,21.7c0.4,0,1.2,0,2.2,0.1c2.8,0.3,5,0.6,6.4,1c2,0.6,3.7,1.4,4.8,2.5c0.9,0.9,1.7,2.3,2.5,4.2
			s1.3,3.9,1.7,6c0.2,1,0.3,1.8,0.3,2.5c0.1,2.8-0.6,5.2-2.1,7.1s-3.8,3.5-6.9,4.5c-1.3,0.4-3.1,0.7-5.5,1C57,51,55,51.1,53.3,51
			c-4.4-0.4-7.7-1.9-9.6-4.7c-1.3-2-2.1-4.2-2.3-6.6c0-0.6,0-1.1,0-1.5c0-4.7,1.7-8.7,4.5-11.6C48.7,23.6,52.1,22.1,55.9,21.7z
			 M60.5,30.7c-1.1-0.5-1.9-0.8-2.4-0.9c-0.1,0-0.1,0-0.2,0s-0.1,0-0.2,0c-0.9,0-1.9,0.3-3,1c-1.1,0.7-2.1,1.7-2.8,2.8
			c-0.7,1.1-1.1,2.3-1.2,3.3c0,0.1,0,0.2,0,0.4c0,0.2,0,0.3,0,0.4c0,0.7,0.3,1.5,1,2.6c1.6,2.7,3.7,3.8,6,3.7c0.4,0,0.8-0.1,1.1-0.2
			c1.2-0.4,2.4-1.2,3.5-2.3c1.1-1.1,1.9-2.3,2.4-3.6c0.2-0.5,0.3-0.8,0.3-1c0-0.1-0.1-0.6-0.4-1.3c-0.3-0.8-0.8-1.7-1.5-2.7
			C62.3,31.9,61.4,31.1,60.5,30.7z"/>
		<path class="st5" d="M86.9,25.6c0.9-0.1,2.3-0.1,4-0.1c2.5,0.1,4.3,0.3,5.4,0.7c2.6,0.8,4.6,2.3,5.9,4.4c0.4,0.6,0.8,1.4,1.2,2.4
			c0.4,0.9,0.6,1.6,0.6,2c0,0.2,0,0.2-0.1,0.2c-0.3,0-1.5,0.1-3.6,0.2c-2.1,0.1-3.6,0.2-4.3,0.2c-0.1,0-0.2,0-0.3,0
			c-0.1,0-0.1,0-0.1,0c-0.1-0.1-0.3-0.3-0.4-0.7c-0.3-0.9-1-1.5-2.4-2.1c-0.6-0.2-1.4-0.4-2.4-0.4c-1.5,0-2.7,0.2-3.5,0.6
			c-1.8,0.9-2.7,2.3-2.7,4.2c0,2,1.1,3.5,2.9,4.5c1.4,0.8,2.7,1.1,3.9,1.1c0.3,0,0.6-0.1,0.9-0.1c0.5-0.1,1-0.4,1.7-0.8
			c0.7-0.4,1.1-0.9,1.4-1.3c0.1-0.2,0.5-0.3,1.2-0.3c0.8,0,2,0,3.6,0.1c3,0.1,4.6,0.1,4.7,0.2c0.1,0.1-0.2,0.7-1,1.8s-1.5,2-2,2.6
			c-1.6,1.6-3.4,2.7-5.3,3.1c-0.7,0.1-1.6,0.2-2.6,0.3c-2.6,0.1-4.9,0.1-6.8,0c-3.3-0.2-6.1-1.4-8-3.5c-0.8-0.8-1.5-2.2-2.1-4
			c-0.6-1.8-0.9-3.5-0.9-5.1c0-2.9,1.1-5.2,3.1-7C80.8,27.1,83.5,26,86.9,25.6z"/>
		<path class="st5" d="M119.8,25.2c0.4-0.1,1.2-0.1,2.3-0.1c2.9,0,5.1,0.2,6.6,0.4c2.2,0.4,3.9,1,5.2,1.8c1.1,0.7,2.1,1.8,3.1,3.4
			c1,1.6,1.6,3.2,2,4.9c0.2,0.8,0.2,1.5,0.2,2.1c0,2.3-0.9,4.3-2.7,5.8c-1.8,1.5-4.4,2.6-7.7,3.2c-1.4,0.2-3.3,0.4-5.7,0.4
			c-2.4,0-4.4,0-6-0.2c-4.3-0.6-7.3-1.9-8.9-4c-1.1-1.5-1.7-3-1.7-4.7c0-0.4,0-0.8,0-1c0.2-3.2,1.6-6,4-8.2
			C113,26.9,116.1,25.7,119.8,25.2z M125.6,31.9c-1.1-0.4-2-0.6-2.5-0.7c-0.1,0-0.1,0-0.2,0c-0.1,0-0.1,0-0.2,0
			c-0.9,0-1.9,0.3-3,0.8s-2,1.3-2.7,2.1c-0.7,0.8-1.1,1.7-1.2,2.4c0,0.1,0,0.2,0,0.3c0,0.1,0,0.2,0,0.3c0,0.5,0.3,1.1,0.9,1.9
			c1.5,2,3.4,3,5.7,2.9c0.4,0,0.8,0,1.2-0.1c1.3-0.3,2.5-0.8,3.8-1.7c1.2-0.9,2.1-1.8,2.6-2.7c0.2-0.4,0.3-0.7,0.3-0.8
			c0-0.1-0.1-0.5-0.3-1c-0.3-0.6-0.8-1.4-1.6-2.1C127.5,32.8,126.6,32.2,125.6,31.9z"/>
		<path class="st5" d="M142.3,46.7c0-0.2-0.1-3.4-0.5-10c-0.4-6.6-0.7-9.9-0.7-10.1c0-0.3,0-0.5,0-0.8c0.4,0,0.5,0,0.9,0.1
			c0.4,0,2.1,0.1,5.3,0.1c1.7,0,2.6,0,4.4,0.1c0,0.4-0.1,0.6-0.1,1c-0.3,2.5-0.4,5.3-0.4,8.4c0,0.9,0,1.9,0.1,3
			c0.1,1.8,0.2,3,0.3,3.4c0.1,0.5,0.3,0.7,0.5,0.7c0.1,0,0.1,0,0.2,0c0.4-0.1,2.4-0.2,6.1-0.4c3.7-0.2,5.8-0.3,6.4-0.3
			c0,0,0.1,0,0.1,0c0,0.2,0,0.5,0,0.9c0,0.2,0,0.5-0.1,0.9c0,0.4-0.1,0.8-0.1,1.1c-0.1,1.1-0.2,1.6-0.4,2.7
			c-3.6-0.1-5.3-0.1-8.9-0.1c-6.6,0-10.3,0-11.1,0c-0.8,0-1.3,0-2.1,0C142.3,47.1,142.3,46.9,142.3,46.7z"/>
		<path class="st5" d="M174.9,26c0.2-0.8,0.4-1.2,0.6-1.2c0.1,0,0.2,0,0.2,0c0.3,0.1,1.5,0,3.5,0c1.2,0,1.8-0.1,3-0.1
			c2.4,4.2,3.5,6.5,5.3,11c2.9,7.1,3.5,11,3.4,11.6c0,0.1-1.2,0.3-3.6,0.6s-3.7,0.5-4,0.5c0,0,0,0,0,0c-0.1-0.1-0.2-1.3-0.6-3.6
			c-0.3-1.4-0.4-2.2-0.7-3.6c-1.1,0-1.6,0-2.7-0.1c-0.4,0-0.9,0-1.5-0.1c-0.5,0-0.8,0-1,0.1c-0.1,0-0.2,0.2-0.3,0.3
			c0,0-0.2,0.6-0.7,1.8c-0.5,1.2-1,2.3-1.5,3.4c-0.5,1.1-0.8,1.6-0.9,1.7c0,0-0.2,0-0.4,0c-0.8,0-2-0.2-3.8-0.5
			c-1.8-0.3-2.7-0.5-2.7-0.6c0-0.1,0.3-0.6,0.8-1.6c0.5-1,1.1-2.3,1.8-3.8c0.7-1.5,1.4-3.2,2.2-5c0.7-1.8,1.4-3.5,1.9-5.1
			c0.5-1.5,1-2.9,1.3-4C174.6,27,174.7,26.7,174.9,26z M180.4,36.4c-0.1-0.4-0.2-0.5-0.3-0.9c-0.2-0.6-0.3-1.2-0.5-1.7
			c-0.2-0.6-0.3-0.8-0.4-0.8c-0.1,0-0.3,0.6-0.6,1.7c-0.4,1.1-0.6,1.8-0.6,2c0,0.1,0.4,0.2,1.3,0.2c0.8,0,1.2-0.1,1.2-0.2
			C180.5,36.5,180.5,36.4,180.4,36.4z"/>
		<path class="st5" d="M193,24.9c-0.1-0.3-0.1-0.5-0.2-0.8c0.4,0,0.5,0,0.9,0c0.3,0,2.1,0,5.2-0.1c1.7,0,2.6-0.1,4.3-0.1
			c0.1,0.9,0.1,1.3,0.2,2.2c0.1,1.1,0.4,3.7,0.5,7.8c0.2,7.7-0.7,12.3-0.8,13.8c-0.1,1.1-0.2,1.8-0.2,1.9c0,0.1-1.6,0-4.6-0.3
			c-1.8-0.1-2.7-0.2-4.6-0.3c0.6-4.5,0.8-6.9,0.6-11.6C194.1,30.4,193.2,26.3,193,24.9z"/>
		<path class="st5" d="M224.5,27.6c-0.4-2.4-0.6-3.5-1.2-5.8c2.1-0.1,3.1-0.2,5.2-0.3c2.1-0.1,3.1-0.2,5.2-0.4c0,0,0.3,1.3,0.6,3.8
			c0.2,1.5,0.4,3.6,0.6,6.3c0.3,4,0.4,8.3,0.1,12.6c-0.3,4.3-0.8,7.3-1,9.2c0,0.3-0.1,0.4-0.1,0.7c-1.2-0.1-1.8-0.2-2.9-0.3
			c-1.6-0.2-2.9-0.4-3.9-0.5c-0.5-0.1-0.7-0.1-1.2-0.2c-0.8-0.2-1.2-0.2-2-0.4c-0.7-2-1.1-2.9-2-4.9c-0.3-0.6-0.7-1.5-1.3-2.7
			s-1.1-2.2-1.6-3c-0.5-0.8-0.9-1.5-1.1-1.9c-0.7-1.1-1-1.6-1.8-2.7c0,1.4,0,2.1,0,3.5c-0.1,2.7-0.2,4.9-0.3,6.6
			c0,1.9-0.2,3-0.2,3.2c0,0.1-1,0-3.1-0.2c-0.8-0.1-1.2-0.1-1.9-0.2c-2-0.2-3-0.3-5-0.5c0.2-1.1,0.3-1.6,0.4-2.7
			c0-0.5,0.2-1.3,0.3-2.5c0.1-1.2,0.3-2.9,0.4-5.1c0.1-2.2,0-3.9,0-5.2c-0.2-4-0.4-6.1-1.2-10c1.7-0.1,2.6-0.2,4.4-0.3
			c3.4-0.2,5.3-0.3,5.8-0.3c0.6,0,0.9,0,1.5,0c1.9,2.3,2.9,3.5,4.6,6c0.6,0.9,1.3,1.9,2,3c0.7,1.1,1.2,2,1.5,2.5
			c0.3,0.5,0.5,0.8,0.5,0.8c0-0.1,0-0.1,0-0.1c0-0.1,0-0.3-0.1-0.5s-0.1-0.4-0.1-0.6C225.3,34.2,225.2,31.8,224.5,27.6z"/>
		<path class="st5" d="M243.5,21c0.1-1.2,0.2-1.8,0.4-1.8c0.1,0,0.2,0,0.2,0c0.3,0.1,1.4,0,3.4-0.3c1.1-0.2,1.7-0.2,2.9-0.4
			c2.7,6.5,3.3,10.3,4.8,18c2.4,12,3.2,18.7,3.2,19.6c0,0.1-1.2,0.3-3.6,0.5c-2.4,0.2-3.7,0.2-4,0.2c0,0,0,0,0,0
			c-0.1-0.1,0-2-0.3-5.8c-0.1-2.3-0.2-3.5-0.5-5.9c-1-0.1-1.4-0.2-2.4-0.3c-0.4-0.1-0.8-0.2-1.3-0.2c-0.5,0-0.8,0-0.9,0
			c-0.1,0.1-0.2,0.2-0.3,0.5c0,0-0.2,1-0.8,2.8c-0.6,1.8-1.2,3.5-1.9,5.1c-0.7,1.6-1.1,2.4-1.2,2.4c0,0-0.2,0-0.4,0
			c-0.7-0.1-1.9-0.6-3.5-1.2c-1.6-0.7-2.4-1-2.4-1.1c0-0.1,0.4-0.8,1.2-2.3c0.7-1.4,1.5-3.2,2.3-5.5s1.6-4.7,2.3-7.5
			c0.7-2.8,1.2-5.4,1.6-7.8c0.4-2.4,0.7-4.5,0.9-6.2C243.4,22.5,243.4,22,243.5,21z M249,37.4c-0.1-0.6-0.1-0.9-0.2-1.5
			c-0.1-1-0.3-1.9-0.5-2.8c-0.2-0.9-0.3-1.3-0.4-1.3s-0.2,0.9-0.6,2.7c-0.3,1.8-0.5,2.8-0.5,3.2c0,0.2,0.4,0.4,1.1,0.4
			c0.7,0,1.1,0,1.1-0.2C249.1,37.6,249.1,37.5,249,37.4z"/>
	</g>
	<g>
		<path class="st6" d="M22.8,19.2c1-0.1,2.3-0.1,3.9,0.1c2.4,0.3,4.1,0.8,5.1,1.4c2.3,1.4,3.9,3.6,4.8,6.8c0.3,0.9,0.6,2.1,0.9,3.5
			c0.3,1.4,0.4,2.4,0.4,2.9c0,0.2,0,0.4-0.1,0.4c-0.3,0.1-1.4,0.2-3.5,0.4c-2.1,0.2-3.5,0.3-4.3,0.3c-0.1,0-0.2,0-0.3,0
			c-0.1,0-0.1,0-0.1,0c-0.1-0.1-0.2-0.5-0.4-1.1c-0.2-1.3-0.9-2.4-2.2-3.2c-0.6-0.4-1.3-0.6-2.3-0.6c-1.5,0-2.6,0.3-3.5,0.9
			c-1.9,1.4-2.9,3.7-2.8,6.8c0.1,3.2,1.3,5.6,3.3,7.1c1.5,1.1,2.8,1.6,4,1.5c0.3,0,0.6-0.1,0.9-0.3c0.4-0.2,1-0.7,1.6-1.4
			s1-1.4,1.2-2c0.1-0.3,0.5-0.4,1.2-0.5c0.8-0.1,2,0,3.5,0c3,0,4.5,0,4.6,0c0.1,0.1-0.2,1-0.8,2.8c-0.6,1.8-1.1,3.1-1.5,3.9
			c-1.2,2.6-2.6,4.2-4.4,5c-0.6,0.3-1.5,0.5-2.5,0.7c-2.5,0.5-4.7,0.8-6.6,0.8c-3.3,0-6.4-1.4-8.8-4.7c-0.9-1.3-2-3.4-2.8-6.4
			c-0.8-3-1.2-5.9-1.2-8.5c0-4.8,1.5-8.7,3.9-11.6C16.4,21.2,19.4,19.6,22.8,19.2z"/>
		<path class="st6" d="M55.1,20.8c0.4,0,1.2,0,2.2,0.1c2.8,0.3,5,0.6,6.4,1.1c2,0.6,3.6,1.5,4.8,2.6c0.9,0.9,1.7,2.3,2.4,4.3
			s1.3,3.9,1.6,6c0.1,1,0.2,1.9,0.3,2.6c0.1,2.8-0.6,5.2-2.1,7.2c-1.5,2-3.8,3.5-6.9,4.5c-1.3,0.4-3.1,0.7-5.5,1
			c-2.3,0.2-4.3,0.3-6,0.2c-4.4-0.4-7.7-1.9-9.6-4.8c-1.3-2-2.1-4.3-2.2-6.7c0-0.6,0-1.1,0-1.5c0.1-4.7,1.9-8.7,4.7-11.7
			C48,22.5,51.4,21.1,55.1,20.8z M59.6,29.8c-1.1-0.5-1.9-0.8-2.4-0.9c-0.1,0-0.1,0-0.2,0c-0.1,0-0.1,0-0.2,0c-0.9,0-1.9,0.3-3,1
			c-1.1,0.7-2.1,1.7-2.8,2.8c-0.8,1.1-1.2,2.3-1.2,3.3c0,0.1,0,0.2,0,0.4c0,0.2,0,0.3,0,0.4c0,0.7,0.3,1.6,1,2.7
			c1.6,2.7,3.6,3.9,5.9,3.7c0.4,0,0.8-0.1,1.1-0.2c1.2-0.4,2.4-1.2,3.6-2.3c1.2-1.2,2-2.3,2.4-3.6c0.2-0.5,0.3-0.8,0.3-1
			c0-0.1-0.1-0.6-0.3-1.3c-0.3-0.8-0.8-1.7-1.5-2.7C61.4,31,60.5,30.2,59.6,29.8z"/>
		<path class="st6" d="M86,24.8c0.9-0.1,2.3-0.1,4-0.1c2.5,0.1,4.3,0.4,5.4,0.7c2.6,0.8,4.5,2.3,5.9,4.4c0.4,0.6,0.8,1.4,1.2,2.4
			c0.4,1,0.5,1.6,0.5,2c0,0.2,0,0.2-0.1,0.2c-0.3,0-1.5,0.1-3.6,0.2c-2.1,0.1-3.6,0.2-4.3,0.2c-0.1,0-0.2,0-0.3,0
			c-0.1,0-0.1,0-0.1,0c-0.1-0.1-0.3-0.3-0.4-0.7c-0.2-0.9-1-1.6-2.4-2.1c-0.6-0.2-1.4-0.4-2.4-0.4c-1.5,0-2.7,0.2-3.5,0.6
			c-1.8,0.9-2.8,2.3-2.7,4.3c0,2,1,3.5,2.9,4.6c1.4,0.8,2.7,1.2,3.9,1.1c0.3,0,0.6-0.1,0.9-0.1c0.5-0.1,1-0.4,1.7-0.8
			c0.7-0.4,1.1-0.9,1.4-1.3c0.1-0.2,0.5-0.3,1.2-0.3c0.8,0,2,0,3.6,0.1c3,0.1,4.6,0.1,4.7,0.2c0.1,0.1-0.2,0.7-1,1.9
			c-0.8,1.2-1.5,2-2,2.6c-1.6,1.7-3.4,2.7-5.3,3.1c-0.7,0.1-1.6,0.2-2.6,0.3c-2.6,0.1-4.9,0.1-6.8,0c-3.4-0.2-6.1-1.4-8-3.5
			c-0.8-0.8-1.5-2.2-2.1-4c-0.6-1.8-0.9-3.6-0.8-5.1c0-2.9,1.1-5.2,3.2-7C79.9,26.2,82.7,25.2,86,24.8z"/>
		<path class="st6" d="M118.9,24.5c0.4-0.1,1.2-0.1,2.2-0.1c2.9,0.1,5.1,0.2,6.6,0.5c2.1,0.4,3.9,1,5.2,1.8c1.1,0.7,2.1,1.8,3,3.3
			c0.9,1.6,1.6,3.2,2,4.9c0.2,0.8,0.2,1.5,0.2,2.1c0,2.3-0.9,4.3-2.7,5.8c-1.8,1.6-4.4,2.6-7.7,3.2c-1.4,0.2-3.3,0.4-5.7,0.4
			c-2.4,0-4.4,0-6-0.2c-4.4-0.6-7.3-1.9-8.9-4c-1.1-1.5-1.7-3.1-1.7-4.7c0-0.4,0-0.8,0-1c0.2-3.3,1.6-6,4.1-8.2
			C112.1,26.2,115.2,25,118.9,24.5z M124.6,31.2c-1.1-0.4-1.9-0.6-2.5-0.7c-0.1,0-0.1,0-0.2,0c-0.1,0-0.1,0-0.2,0
			c-0.9,0-1.9,0.3-3,0.8s-2,1.3-2.7,2.1c-0.7,0.8-1.1,1.7-1.2,2.4c0,0.1,0,0.2,0,0.3c0,0.1,0,0.2,0,0.3c0,0.5,0.3,1.1,0.9,2
			c1.5,2,3.4,3,5.7,3c0.4,0,0.8,0,1.2-0.1c1.3-0.3,2.5-0.8,3.8-1.7c1.2-0.9,2.1-1.8,2.6-2.7c0.2-0.4,0.3-0.7,0.3-0.8
			c0-0.1-0.1-0.5-0.3-1c-0.3-0.6-0.8-1.4-1.6-2.1C126.5,32.1,125.6,31.5,124.6,31.2z"/>
		<path class="st6" d="M141.4,46c0-0.2-0.1-3.5-0.6-10s-0.7-9.9-0.7-10c0-0.3,0-0.5,0-0.8c0.4,0,0.5,0,0.9,0.1
			c0.4,0,2.1,0.1,5.3,0.1c1.7,0,2.6,0,4.4,0.1c0,0.4-0.1,0.6-0.1,1c-0.3,2.5-0.4,5.3-0.4,8.4c0,0.9,0,1.9,0.1,3
			c0.1,1.8,0.3,3,0.4,3.4c0.1,0.5,0.3,0.7,0.5,0.7c0.1,0,0.1,0,0.2,0c0.4-0.1,2.4-0.2,6.1-0.4c3.7-0.2,5.8-0.3,6.4-0.3
			c0,0,0.1,0,0.1,0c0,0.2,0,0.5,0,0.9c0,0.2,0,0.5-0.1,0.9c0,0.4-0.1,0.8-0.1,1.1c-0.1,1.1-0.2,1.6-0.4,2.7c-3.6,0-5.4-0.1-8.9-0.1
			c-6.6,0-10.3,0-11.1,0c-0.8,0-1.3,0-2.1,0C141.3,46.4,141.3,46.3,141.4,46z"/>
		<path class="st6" d="M173.8,25.4c0.2-0.8,0.4-1.2,0.6-1.2c0.1,0,0.2,0,0.2,0c0.3,0.1,1.5,0,3.5,0c1.2,0,1.8-0.1,2.9-0.1
			c2.4,4.2,3.5,6.4,5.3,10.9c2.9,7,3.6,11,3.5,11.5c0,0.1-1.2,0.3-3.6,0.6c-2.4,0.3-3.7,0.5-4,0.5c0,0,0,0,0,0
			c-0.1-0.1-0.3-1.3-0.7-3.6c-0.3-1.4-0.4-2.2-0.8-3.6c-1.1,0-1.6,0-2.7-0.1c-0.4,0-0.9,0-1.5-0.1c-0.5,0-0.8,0-1,0.1
			c-0.1,0-0.2,0.2-0.3,0.3c0,0-0.2,0.6-0.7,1.8s-0.9,2.3-1.4,3.4c-0.5,1.1-0.8,1.7-0.8,1.7c0,0-0.2,0-0.4,0c-0.8,0-2-0.2-3.8-0.5
			c-1.8-0.3-2.7-0.5-2.7-0.6c0-0.1,0.3-0.6,0.7-1.6c0.5-1,1.1-2.3,1.8-3.8c0.7-1.5,1.4-3.2,2.1-5c0.7-1.8,1.4-3.5,1.9-5.1
			c0.5-1.5,1-2.9,1.3-3.9C173.5,26.3,173.6,26,173.8,25.4z M179.5,35.7c-0.1-0.4-0.2-0.5-0.3-0.9c-0.2-0.6-0.4-1.2-0.5-1.7
			c-0.2-0.6-0.3-0.8-0.4-0.8c-0.1,0-0.3,0.6-0.6,1.7c-0.4,1.1-0.6,1.8-0.6,2c0,0.1,0.4,0.2,1.3,0.2c0.8,0,1.2-0.1,1.2-0.2
			C179.5,35.8,179.5,35.7,179.5,35.7z"/>
		<path class="st6" d="M191.9,24.3c-0.1-0.3-0.1-0.5-0.2-0.8c0.4,0,0.5,0,0.9,0c0.3,0,2.1,0,5.2-0.1c1.7-0.1,2.6-0.1,4.3-0.1
			c0.1,0.8,0.1,1.3,0.2,2.1c0.1,1.1,0.5,3.6,0.6,7.7c0.3,7.7-0.5,12.2-0.6,13.7c-0.1,1.1-0.1,1.8-0.2,1.9c0,0.1-1.6,0-4.7-0.2
			c-1.8-0.1-2.8-0.2-4.6-0.3c0.6-4.5,0.7-6.9,0.4-11.5C193.1,29.7,192.1,25.6,191.9,24.3z"/>
		<path class="st6" d="M223.4,26.7c-0.4-2.3-0.7-3.5-1.3-5.7c2.1-0.1,3.1-0.2,5.2-0.4c2.1-0.1,3.1-0.2,5.2-0.4c0,0,0.3,1.2,0.6,3.7
			c0.2,1.5,0.5,3.6,0.7,6.3c0.4,4,0.5,8.2,0.3,12.5c-0.2,4.3-0.7,7.3-0.8,9.2c0,0.3-0.1,0.4-0.1,0.7c-1.2-0.1-1.8-0.2-2.9-0.3
			c-1.6-0.2-2.9-0.3-3.9-0.5c-0.5-0.1-0.7-0.1-1.2-0.2c-0.8-0.1-1.2-0.2-2.1-0.4c-0.8-1.9-1.2-2.9-2.1-4.8c-0.3-0.6-0.7-1.5-1.3-2.7
			c-0.6-1.1-1.2-2.1-1.6-3c-0.5-0.8-0.9-1.4-1.2-1.9c-0.7-1.1-1.1-1.6-1.8-2.6c0,1.4,0,2.1,0,3.5c0,2.7-0.2,4.9-0.2,6.6
			c0,1.9-0.1,3-0.2,3.2c0,0.1-1,0-3.1-0.2c-0.8-0.1-1.2-0.1-1.9-0.2c-2-0.2-3-0.3-5-0.5c0.2-1.1,0.3-1.6,0.4-2.7
			c0-0.5,0.1-1.3,0.3-2.5c0.1-1.2,0.3-2.9,0.3-5.1c0-2.2,0-3.9-0.1-5.2c-0.2-4-0.5-6-1.3-9.9c1.7-0.1,2.6-0.2,4.4-0.3
			c3.4-0.2,5.3-0.3,5.8-0.3c0.6,0,0.9,0,1.5,0c2,2.3,2.9,3.5,4.7,5.9c0.6,0.9,1.3,1.9,2.1,3c0.7,1.1,1.2,2,1.6,2.5
			c0.3,0.5,0.5,0.8,0.5,0.8c0-0.1,0-0.1,0-0.1c0-0.1,0-0.3-0.1-0.5c0-0.2-0.1-0.4-0.1-0.6C224.3,33.3,224.2,30.8,223.4,26.7z"/>
		<path class="st6" d="M242.4,20c0-1.2,0.2-1.8,0.4-1.8c0.1,0,0.2,0,0.2,0c0.3,0.1,1.4,0,3.4-0.3c1.1-0.2,1.7-0.2,2.9-0.4
			c2.8,6.4,3.6,10.1,5.1,17.7c2.5,11.9,3.3,18.6,3.2,19.5c0,0.1-1.2,0.3-3.6,0.5c-2.4,0.2-3.7,0.3-3.9,0.2c0,0,0,0,0,0
			c-0.1-0.1-0.1-2-0.3-5.8c-0.1-2.3-0.3-3.5-0.5-5.9c-1-0.1-1.4-0.2-2.4-0.3c-0.4-0.1-0.8-0.1-1.3-0.2c-0.5,0-0.8,0-0.9,0
			c-0.1,0.1-0.2,0.2-0.3,0.5c0,0-0.2,1-0.8,2.8c-0.6,1.8-1.2,3.5-1.8,5.1c-0.7,1.6-1.1,2.4-1.2,2.5c0,0-0.2,0-0.4,0
			c-0.7-0.1-1.9-0.5-3.5-1.2s-2.4-1-2.4-1.1c0-0.1,0.4-0.8,1.1-2.3c0.7-1.4,1.5-3.3,2.3-5.5c0.8-2.2,1.6-4.7,2.2-7.5
			c0.7-2.8,1.2-5.4,1.5-7.8s0.6-4.4,0.8-6.1C242.3,21.5,242.3,21,242.4,20z M248.2,36.2c-0.1-0.6-0.1-0.9-0.3-1.5
			c-0.1-1-0.3-1.9-0.5-2.8c-0.2-0.9-0.3-1.3-0.4-1.3s-0.2,0.9-0.5,2.7c-0.3,1.8-0.5,2.8-0.5,3.1c0,0.2,0.4,0.4,1.1,0.4
			c0.7,0,1.1-0.1,1.1-0.3C248.2,36.4,248.2,36.3,248.2,36.2z"/>
	</g>
	<g>
		<g>
			<path class="st7" d="M195.8,79.3c-40.9-4.9-81.2-4.9-122.1,0c-4,0.5-7.9-1.3-8.7-4.2c-0.6-2.3-1-3.4-1.6-5.7
				c-0.8-2.9,2-5.7,6.2-6.3c43.6-5.3,86.7-5.3,130.3,0c4.3,0.6,7.1,3.4,6.2,6.3c-0.6,2.3-1,3.4-1.6,5.7
				C203.7,78,199.8,79.9,195.8,79.3z"/>
			<g>
				<path class="st8" d="M72.1,65.9c1.3-0.2,2.3-0.3,3.2-0.4c2.5-0.3,4.3-0.5,5.6-0.6c0.3,0,0.5,0,0.8,0c0,0.1,0,0.2,0,0.4
					c0,0.2,0.1,0.6,0.2,1.1c0.1,0.3,0.1,0.5,0.2,0.8c-0.8,0.1-1.1,0.1-1.9,0.2c-1.3,0.1-2.1,0.3-2.3,0.3c-0.2,0-0.3,0.1-0.4,0.1
					c0,0.1,0,0.2,0,0.4c0,0.2,0.2,1,0.5,2.5c0.4,2,0.7,3,0.8,3.2c0,0,0.1,0.1,0.1,0.1c0,0,0.1,0.1,0.1,0.1c0,0,0,0,0,0
					c0,0-0.5,0.1-1.6,0.2c-0.7,0.1-1.1,0.1-1.8,0.2c-0.3-1.2-0.4-1.7-0.8-2.9c-0.6-2.2-0.9-3.3-1.1-3.4c0,0-0.7,0-2,0.2
					c-0.8,0.1-1.1,0.1-1.9,0.2c0-0.1-0.1-0.1-0.1-0.2c-0.1-0.1-0.2-0.4-0.3-1c-0.2-0.7-0.2-1-0.2-1.1C69.2,66.3,70.2,66.2,72.1,65.9
					z"/>
				<path class="st8" d="M81.2,69.7c-0.1-0.5-0.2-0.8-0.3-1.3c0.3,0,0.5-0.1,0.8-0.1c0.6-0.1,0.9-0.1,1.1-0.1c0.1,0,0.2,0,0.3,0
					c0.1,0.4,0.1,0.7,0.2,1.1c0.2,1.1,0.5,1.8,0.9,2c0.1,0.1,0.3,0.1,0.5,0.1c0,0,0.1,0,0.1,0c0.1,0,0.1,0,0.2,0
					c0.3,0,0.5-0.1,0.6-0.1c0.1,0,0.2-0.1,0.3-0.2c0.1-0.1,0.2-0.2,0.2-0.3c0-0.1,0-0.4-0.1-0.8c-0.1-0.7-0.2-1.2-0.2-1.5
					c0-0.2-0.1-0.3-0.1-0.5c0.8-0.1,1.3-0.1,2.1-0.2c0.2,0.8,0.3,1.2,0.4,2.1c0.4,1.6,0.6,2.6,0.6,2.8c0.1,0.3,0.1,0.4,0.2,0.7
					c-0.2,0-0.4,0.1-0.6,0.1c-0.3,0-0.6,0.1-0.8,0.1c-0.1,0-0.1,0-0.2,0c-0.2,0-0.3,0-0.3,0c-0.1,0-0.1,0-0.1,0c0,0,0-0.1-0.1-0.2
					c0-0.1-0.1-0.2-0.2-0.2c-0.1,0-0.2,0.1-0.5,0.3c-0.4,0.2-0.8,0.4-1.3,0.4c-0.8,0.1-1.4-0.1-1.9-0.4c-0.4-0.3-0.7-0.6-1-1
					c-0.2-0.3-0.4-1-0.6-2C81.3,70.1,81.2,70,81.2,69.7z"/>
				<path class="st8" d="M96.9,66.2c0,0,0.2,0,0.3,0c0.8-0.1,1.4,0,1.9,0c0.6,0.1,1.2,0.4,1.6,0.9c0.4,0.5,0.7,1,0.9,1.7
					c0,0.2,0,0.3,0.1,0.5c-1.1,0.1-1.6,0.1-2.7,0.2c-1.1,0.1-1.6,0.1-2.7,0.2c0.1,0.1,0.1,0.1,0.2,0.2c0.2,0.2,0.4,0.4,0.8,0.6
					c0.3,0.1,0.7,0.2,1,0.2c0.2,0,0.4-0.1,0.7-0.4c0.2-0.1,0.2-0.2,0.4-0.4c0.5,0,0.7,0,1.2,0c0.8,0,1.2,0,1.2,0c0,0,0,0,0,0
					c0,0.1-0.1,0.3-0.2,0.5c-0.2,0.3-0.3,0.5-0.5,0.7c-0.4,0.5-0.9,0.7-1.4,0.9c-0.1,0-0.4,0.1-0.6,0.1c-1.1,0.1-1.8,0.1-2.3,0
					c-0.4,0-0.8-0.2-1.2-0.4c-0.4-0.2-0.7-0.5-0.9-0.8c-0.4-0.5-0.6-1.2-0.7-1.9c0-0.1,0-0.1,0-0.2c-0.1-0.6,0.1-1.2,0.6-1.7
					c0.2-0.2,0.4-0.3,0.8-0.5c0.4-0.2,0.7-0.3,1-0.4c0.1,0,0.3-0.1,0.4-0.1C96.8,66.2,96.9,66.2,96.9,66.2z M98.5,68.1
					C98.3,68,98,68,97.6,68c-0.2,0-0.3,0-0.4,0.1c-0.2,0.1-0.4,0.2-0.6,0.4c-0.2,0.2-0.3,0.3-0.3,0.4c0,0,0,0,0,0c0.1,0,0.2,0,0.3,0
					c0.2,0,0.5,0,1.1-0.1c0.6-0.1,0.8-0.1,1.4-0.2c-0.1-0.1-0.1-0.1-0.2-0.2C98.9,68.3,98.8,68.2,98.5,68.1z"/>
				<path class="st8" d="M102.2,66.8c-0.1-1-0.2-1.4-0.4-2.4c0.4,0,0.6,0,1,0c0.7,0,1,0,1.1,0c0,0,0.3,1.2,0.7,3.5s0.7,3.5,0.7,3.5
					c0,0,0,0,0,0.1c0,0,0,0.1-0.1,0.1s-0.3,0-0.6,0.1c-0.8,0.1-1.2,0.2-1.2,0.2c-0.2,0-0.3,0-0.4,0.1c-0.1-0.6-0.1-0.8-0.2-1.4
					c0-0.3-0.1-0.9-0.3-1.9C102.4,67.7,102.3,67.1,102.2,66.8z"/>
				<path class="st8" d="M105.9,64.9c0.2-0.1,0.3-0.2,0.5-0.2c0.3,0,0.6,0.1,0.8,0.2c0.3,0.2,0.4,0.4,0.4,0.7c0,0.2,0,0.3-0.1,0.5
					s-0.2,0.3-0.3,0.4c-0.1,0.1-0.3,0.1-0.6,0.1c-0.3,0-0.5,0-0.6-0.1c-0.4-0.1-0.6-0.4-0.6-0.8C105.5,65.4,105.6,65.1,105.9,64.9z
					 M106.6,67.2c0.7-0.1,1.2-0.2,1.3-0.2c0,0,0,0,0.1,0c0,0.2,0.2,1,0.4,2.2s0.3,1.9,0.3,2c0,0.1,0,0.2,0,0.3
					c-0.3,0-0.4,0.1-0.8,0.1c-0.8,0.1-1.2,0.1-1.2,0.2c-0.2,0-0.3,0-0.4,0.1c-0.2-1.8-0.3-2.7-0.5-4.5
					C106.2,67.3,106.3,67.2,106.6,67.2z"/>
				<path class="st8" d="M114.8,65.6c0.3-0.3,0.4-0.4,0.5-0.4c0,0,0.4,0.2,1.1,0.5c0.4,0.2,0.6,0.3,1,0.5c-0.1,0-0.2,0.1-0.3,0.1
					c-0.3,0.1-0.5,0.2-0.7,0.3c-0.1,0.1-0.2,0.1-0.3,0.3c0.1,0.1,0.2,0.2,0.3,0.3c0.2,0.3,0.4,0.6,0.4,1c0,0.6-0.2,1.1-0.7,1.6
					c-0.3,0.3-0.6,0.5-1,0.6c-0.4,0.1-0.9,0.2-1.7,0.2c-1.2,0.1-1.9,0.3-2,0.5c0,0.1-0.1,0.1,0,0.1c0,0,0.1,0.1,0.2,0.1
					c0.1,0,0.4,0,0.8-0.1c0.6-0.1,1.4-0.2,2.2-0.3c0.5,0,0.9,0,1.2,0c0.7,0.1,1.3,0.5,1.6,1.1c0.1,0.3,0.2,0.5,0.2,0.6
					c0,0.2-0.2,0.5-0.5,0.9c-0.7,0.7-2.1,1.1-4.2,1.2c-2.3,0.1-3.5-0.3-3.7-1.2c0,0,0-0.1,0-0.1c0,0,0-0.1,0-0.1
					c0-0.3,0-0.5,0.2-0.7c0.1-0.2,0.2-0.3,0.2-0.4c0,0,0-0.1-0.1-0.3c-0.1-0.3-0.2-0.5-0.2-0.7c0-0.3,0.1-0.5,0.2-0.7
					c0.2-0.2,0.4-0.4,0.4-0.4c0.1,0,0-0.1-0.4-0.4c-0.6-0.4-0.9-0.8-0.9-1.3c0-0.1,0-0.2,0-0.2c0-0.5,0.2-0.9,0.6-1.3
					c0.7-0.7,1.8-1.1,3.4-1.2c0.6,0,1,0,1.3,0c0.2,0,0.3,0,0.3,0C114.4,65.9,114.5,65.8,114.8,65.6z M115.1,72.3
					c-0.2-0.1-0.4-0.1-0.7-0.1c-0.5,0-1.1,0.1-2,0.4c-0.3,0.1-0.5,0.1-0.6,0.2c-0.2,0.1-0.2,0.2-0.2,0.3c0,0,0,0.1,0,0.1
					c0.1,0.1,0.5,0.1,1.1,0.1c1.1,0,1.9-0.2,2.3-0.4c0.2-0.1,0.3-0.2,0.3-0.3C115.3,72.5,115.2,72.4,115.1,72.3z M113.8,67.6
					c-0.2,0-0.5-0.1-0.9,0c-0.6,0-1,0.1-1.2,0.2c-0.3,0.1-0.5,0.3-0.5,0.5c0,0.1,0.1,0.2,0.3,0.4c0.4,0.2,0.8,0.3,1.5,0.3
					c0.3,0,0.6-0.1,0.9-0.2c0.2-0.1,0.4-0.2,0.4-0.3c0,0,0-0.1,0-0.1C114.2,67.9,114.1,67.7,113.8,67.6z"/>
				<path class="st8" d="M120.9,64.9c0,0,0.2,0,0.3,0c0.8,0,1.4,0,1.9,0.1c0.6,0.1,1.1,0.4,1.5,0.9c0.4,0.5,0.6,1.1,0.7,1.8
					c0,0.2,0,0.3,0,0.5c-1.1,0-1.6,0-2.7,0.1c-1.1,0-1.6,0-2.7,0.1c0.1,0.1,0.1,0.1,0.1,0.2c0.2,0.2,0.4,0.4,0.7,0.6
					c0.3,0.2,0.6,0.2,1,0.2c0.2,0,0.4-0.1,0.7-0.3c0.2-0.1,0.3-0.2,0.4-0.4c0.5,0,0.7,0,1.2,0c0.8,0,1.2,0,1.2,0.1c0,0,0,0,0,0
					c0,0.1-0.1,0.3-0.3,0.5c-0.2,0.3-0.4,0.5-0.5,0.7c-0.4,0.4-1,0.7-1.5,0.8c-0.1,0-0.4,0-0.6,0c-1.1,0-1.8,0-2.3-0.1
					c-0.4-0.1-0.8-0.2-1.2-0.4c-0.4-0.2-0.6-0.5-0.8-0.8c-0.3-0.5-0.5-1.2-0.5-1.9c0-0.1,0-0.1,0-0.2c0-0.6,0.2-1.2,0.8-1.7
					c0.2-0.1,0.5-0.3,0.8-0.5c0.4-0.2,0.7-0.3,1-0.3c0.1,0,0.3,0,0.4-0.1C120.8,65,120.9,64.9,120.9,64.9z M122.3,66.9
					c-0.3-0.1-0.6-0.1-0.9-0.1c-0.2,0-0.3,0-0.4,0c-0.2,0-0.4,0.2-0.6,0.3c-0.2,0.2-0.3,0.3-0.3,0.4c0,0,0,0,0,0c0.1,0,0.2,0,0.3,0
					c0.2,0,0.5,0,1.1-0.1c0.6,0,0.8-0.1,1.4-0.1c-0.1-0.1-0.1-0.1-0.2-0.2C122.6,67.1,122.5,67,122.3,66.9z"/>
				<path class="st8" d="M128.8,65c0.3,0,0.7-0.1,1.3-0.1c0.6,0,1.1,0,1.7,0c0.5,0,0.8,0.1,0.8,0.1c0,0.1-0.1,0.3-0.2,0.7
					c-0.2,0.4-0.3,0.6-0.3,0.7c0,0,0,0,0,0c-0.1,0-0.3,0-0.6-0.1c-0.4-0.1-0.8-0.2-1.2-0.2c-0.6,0-0.9,0.1-1,0.3c0,0,0,0,0,0
					c0,0,0,0,0,0c0,0.2,0.5,0.5,1.6,0.8c0.7,0.2,1.1,0.3,1.3,0.5c0.2,0.1,0.4,0.3,0.5,0.4c0.1,0.2,0.2,0.4,0.2,0.6
					c0,0.3-0.1,0.5-0.2,0.7c-0.4,0.5-0.8,0.8-1.3,1c-0.4,0.1-0.8,0.2-1.4,0.2c-0.8,0-1.8-0.1-2.9-0.3c-0.3-0.1-0.5-0.1-0.8-0.2
					c0.1-0.2,0.2-0.3,0.3-0.6c0.1-0.1,0.2-0.3,0.3-0.5c0.1-0.2,0.2-0.3,0.2-0.3c0-0.1,0.1-0.1,0.1-0.2c0.3,0.1,0.5,0.2,0.8,0.3
					c0.9,0.3,1.6,0.5,2,0.5c0.1,0,0.2,0,0.3,0c0.4-0.1,0.7-0.2,0.7-0.4c0-0.2-0.4-0.4-1.2-0.6c-1.6-0.3-2.5-0.9-2.8-1.8
					c0-0.1-0.1-0.2-0.1-0.3c0-0.4,0.2-0.7,0.6-1C127.7,65.3,128.2,65.1,128.8,65z"/>
				<path class="st8" d="M141.8,64.8c0,0,0.2,0,0.3,0c0.8,0,1.4,0.1,1.9,0.2c0.6,0.2,1.1,0.5,1.5,1c0.4,0.5,0.5,1.1,0.6,1.8
					c0,0.2,0,0.3,0,0.5c-1.1,0-1.6,0-2.7,0c-1.1,0-1.6,0-2.7,0c0,0.1,0.1,0.1,0.1,0.2c0.1,0.3,0.4,0.5,0.7,0.6
					c0.3,0.2,0.6,0.3,1,0.3c0.2,0,0.5-0.1,0.8-0.3c0.2-0.1,0.3-0.2,0.5-0.3c0.5,0,0.7,0.1,1.2,0.1c0.8,0.1,1.2,0.1,1.2,0.1
					c0,0,0,0,0,0c0,0.1-0.1,0.2-0.3,0.5c-0.2,0.3-0.4,0.5-0.6,0.6c-0.5,0.4-1,0.7-1.6,0.7c-0.2,0-0.4,0-0.6,0
					c-1.1,0-1.8-0.1-2.3-0.2c-0.4-0.1-0.8-0.2-1.1-0.5s-0.6-0.5-0.7-0.8c-0.3-0.5-0.4-1.2-0.4-2c0-0.1,0-0.1,0-0.2
					c0-0.6,0.3-1.2,0.9-1.7c0.2-0.1,0.5-0.3,0.9-0.4s0.7-0.2,1-0.3c0.1,0,0.3,0,0.4-0.1C141.7,64.8,141.8,64.8,141.8,64.8z
					 M143.1,66.8c-0.2-0.1-0.5-0.2-0.9-0.2c-0.2,0-0.3,0-0.4,0c-0.2,0-0.4,0.1-0.6,0.3c-0.2,0.2-0.4,0.3-0.4,0.4c0,0,0,0,0,0.1
					c0.1,0,0.2,0,0.3,0c0.2,0,0.5,0,1.1,0c0.6,0,0.8,0,1.4,0c-0.1-0.1-0.1-0.1-0.1-0.2C143.4,67,143.3,66.9,143.1,66.8z"/>
				<path class="st8" d="M147,65.8c0-1,0-1.4,0.1-2.4c0.4,0,0.6,0,1,0c0.7,0,1,0.1,1.1,0.1c0,0,0.1,1.2,0.1,3.6c0,2.3,0,3.5,0.1,3.6
					c0,0,0,0.1,0,0.1c0,0,0,0.1-0.1,0.1c-0.1,0-0.3,0-0.6,0c-0.8,0-1.2,0-1.2,0c-0.2,0-0.3,0-0.5,0c0-0.6,0-0.8,0-1.4
					c0-0.3,0-0.9,0-1.9C147,66.8,147,66.1,147,65.8z"/>
				<path class="st8" d="M158.4,65.8c0.7-0.2,1.5-0.3,2.5-0.3c0.1,0,0.1,0,0.2,0c0.1,0,0.2,0.1,0.2,0.2s0,0.4,0.1,0.9
					c0,0.2,0,0.3,0,0.4c-0.3,0-0.5,0-0.9,0c-0.8,0-1.3,0.1-1.7,0.3c-0.4,0.2-0.7,0.4-0.9,0.7c-0.1,0.2-0.2,0.7-0.3,1.4
					c0,0.2,0,0.3,0,0.6c0,0.6-0.1,0.9-0.1,1.6c-0.2,0-0.4,0-0.6,0c-0.3,0-0.8,0-1.2,0c-0.3,0-0.4,0-0.7,0c0-0.6,0.1-0.9,0.1-1.5
					c0.1-0.7,0.1-1.6,0.1-2.5s0-1.6,0-1.7c0,0,0,0,0,0c0,0,0,0,0,0c0-0.1,0.1-0.1,0.3-0.1c0.2,0,0.6,0,1.3,0c0.4,0,0.6,0,1,0
					c0,0.1,0,0.2-0.1,0.3c0,0.1-0.1,0.1-0.1,0.2C157.9,65.9,158.1,65.9,158.4,65.8z"/>
				<path class="st8" d="M165.7,65.7c0,0,0.2,0,0.3,0c0.8,0,1.4,0.1,1.8,0.3c0.6,0.2,1,0.6,1.4,1.1c0.3,0.5,0.4,1.1,0.4,1.8
					c0,0.2,0,0.3,0,0.5c-1.1-0.1-1.6-0.1-2.7-0.2c-1.1-0.1-1.6-0.1-2.7-0.2c0,0.1,0.1,0.1,0.1,0.3c0.1,0.3,0.3,0.5,0.6,0.7
					c0.3,0.2,0.6,0.3,0.9,0.3c0.2,0,0.5-0.1,0.8-0.3c0.2-0.1,0.3-0.2,0.5-0.3c0.5,0.1,0.7,0.1,1.2,0.1c0.8,0.1,1.2,0.2,1.2,0.2
					c0,0,0,0,0,0c0,0.1-0.1,0.2-0.4,0.5s-0.5,0.5-0.7,0.6c-0.5,0.4-1.1,0.6-1.6,0.7c-0.2,0-0.4,0-0.6,0c-1.1-0.1-1.8-0.2-2.3-0.3
					c-0.4-0.1-0.8-0.3-1.1-0.6c-0.3-0.3-0.5-0.6-0.7-0.9c-0.2-0.6-0.3-1.2-0.2-2c0-0.1,0-0.1,0-0.2c0.1-0.6,0.4-1.2,1-1.6
					c0.2-0.1,0.5-0.3,0.9-0.4c0.4-0.1,0.7-0.2,1-0.2c0.1,0,0.3,0,0.4,0C165.6,65.7,165.7,65.7,165.7,65.7z M166.8,67.8
					c-0.2-0.1-0.5-0.2-0.9-0.2c-0.2,0-0.3,0-0.4,0c-0.2,0-0.4,0.1-0.7,0.3c-0.3,0.2-0.4,0.3-0.4,0.4c0,0,0,0,0,0.1
					c0.1,0,0.2,0,0.3,0c0.2,0,0.5,0,1.1,0c0.6,0,0.8,0,1.4,0c0-0.1-0.1-0.1-0.1-0.2C167.1,68,167,67.9,166.8,67.8z"/>
				<path class="st8" d="M170.8,67c0.1-1,0.2-1.4,0.3-2.4c0.4,0,0.6,0.1,1,0.1c0.7,0.1,1,0.1,1.1,0.2c0,0,0,1.2-0.2,3.5
					c-0.2,2.3-0.3,3.5-0.3,3.6c0,0,0,0.1,0,0.1c0,0,0,0.1-0.1,0.1c-0.1,0-0.3,0-0.6,0c-0.8,0-1.2,0-1.2,0c-0.2,0-0.3,0-0.5,0
					c0.1-0.6,0.1-0.8,0.1-1.4c0-0.3,0.1-0.9,0.2-1.9C170.7,68,170.8,67.3,170.8,67z"/>
				<path class="st8" d="M174.2,67.3c0.1-1,0.2-1.4,0.3-2.4c0.4,0,0.6,0.1,1,0.1c0.7,0.1,1,0.1,1.1,0.2c0,0-0.1,1.2-0.3,3.5
					c-0.2,2.3-0.3,3.5-0.3,3.6c0,0,0,0.1,0,0.1c0,0,0,0.1-0.1,0.1c-0.1,0-0.3,0-0.6,0c-0.8,0-1.2,0-1.2,0c-0.2,0-0.3,0-0.5,0
					c0.1-0.6,0.1-0.8,0.2-1.4c0-0.3,0.1-0.9,0.2-1.9C174,68.2,174.1,67.6,174.2,67.3z"/>
				<path class="st8" d="M181.1,67c0,0,0.2,0,0.3,0c0.8,0.1,1.4,0.2,1.8,0.4c0.6,0.2,1,0.6,1.3,1.1c0.3,0.5,0.4,1.1,0.3,1.8
					c0,0.2,0,0.3-0.1,0.5c-1.1-0.1-1.6-0.2-2.7-0.2c-1.1-0.1-1.6-0.1-2.7-0.2c0,0.1,0.1,0.2,0.1,0.3c0.1,0.3,0.3,0.5,0.6,0.7
					s0.6,0.3,0.9,0.3c0.2,0,0.5-0.1,0.8-0.2c0.2-0.1,0.3-0.2,0.5-0.3c0.5,0.1,0.7,0.1,1.1,0.2c0.8,0.1,1.2,0.2,1.2,0.2c0,0,0,0,0,0
					c0,0.1-0.1,0.2-0.4,0.5c-0.3,0.3-0.5,0.4-0.7,0.6c-0.5,0.4-1.1,0.6-1.7,0.6c-0.2,0-0.4,0-0.6,0c-1.1-0.1-1.8-0.2-2.3-0.4
					c-0.4-0.1-0.7-0.3-1-0.6c-0.3-0.3-0.5-0.6-0.6-0.9c-0.2-0.6-0.2-1.2-0.1-2c0-0.1,0-0.1,0-0.2c0.1-0.6,0.5-1.1,1.1-1.6
					c0.2-0.1,0.5-0.2,0.9-0.4c0.4-0.1,0.8-0.2,1.1-0.2c0.1,0,0.3,0,0.4,0C181,67,181.1,67,181.1,67z M182,69.1
					c-0.2-0.1-0.5-0.2-0.9-0.3c-0.2,0-0.3,0-0.4,0c-0.2,0-0.4,0.1-0.7,0.3c-0.3,0.2-0.4,0.3-0.4,0.4c0,0,0,0,0,0.1
					c0.1,0,0.2,0,0.3,0c0.2,0,0.5,0,1.1,0.1c0.6,0,0.8,0,1.4,0.1c0-0.1-0.1-0.1-0.1-0.2C182.3,69.3,182.2,69.2,182,69.1z"/>
				<path class="st8" d="M189.5,67.5c0.2,0,0.4,0,0.6,0c0.4,0,0.8,0.2,1.2,0.6c0.4,0.3,0.6,0.7,0.8,1.2c0.1,0.2,0.1,0.3,0.1,0.4
					c-0.2,0.8-0.3,1.3-0.4,2.1c-0.2,0.8-0.3,1.2-0.5,2.1c-0.1,0-0.2,0-0.3,0c-0.1,0-0.2,0-0.4,0c-0.1,0-0.3,0-0.6-0.1
					c-0.3-0.1-0.4-0.1-0.7-0.1c0.1-0.2,0.1-0.3,0.2-0.5c0-0.1,0-0.1,0-0.2c0.1-0.4,0.2-0.8,0.2-1.4c0.1-0.5,0.1-0.9,0-1
					c0-0.2-0.1-0.3-0.2-0.4c-0.1-0.1-0.3-0.2-0.5-0.2c-0.2,0-0.4,0-0.7,0c-0.2,0-0.4,0.1-0.5,0.2c-0.1,0.1-0.3,0.7-0.5,1.7
					c-0.2,0.6-0.2,0.9-0.4,1.5c-0.4,0-0.5-0.1-0.9-0.1c-0.4,0-0.5-0.1-0.9-0.1c0.2-1.2,0.3-1.7,0.4-2.9c0.2-1.3,0.3-2.3,0.5-2.8
					c0,0,0-0.1,0-0.1c0,0,0.3,0,0.8,0c0.1,0,0.3,0,0.6,0c0.2,0,0.4,0,0.4,0c0,0,0.1,0,0.1,0s0.1,0,0.1,0c0.1,0,0.1,0.1,0.1,0.3
					c0,0.1,0,0.2,0,0.3c0.2-0.1,0.3-0.1,0.5-0.2C189,67.7,189.3,67.6,189.5,67.5z"/>
				<path class="st8" d="M196.1,69.1c0.4,0,0.8,0,1.3,0c1,0.1,1.7,0.4,2.3,0.7c0.4,0.2,0.6,0.7,0.8,1.2c0.2,0.6,0.2,1.2,0,1.7
					c0,0.1,0,0.1,0,0.2c-0.3,0.9-1.1,1.5-2.2,1.7c-0.6,0.1-1.4,0.1-2.2,0c-0.7-0.1-1.3-0.2-1.9-0.4c-0.6-0.2-0.9-0.4-1.1-0.7
					c-0.4-0.5-0.5-1.1-0.3-1.7c0.1-0.5,0.4-1,0.8-1.5C194.1,69.6,195,69.2,196.1,69.1z M197.7,71c-0.2-0.2-0.5-0.3-0.8-0.3
					c-0.1,0-0.3,0-0.4,0c-0.4,0.1-0.7,0.2-1,0.5c-0.3,0.2-0.5,0.5-0.5,0.7c-0.1,0.3,0,0.5,0.2,0.9c0.2,0.3,0.5,0.5,0.8,0.6
					c0,0,0.1,0,0.2,0c0.3,0,0.7,0,1.1-0.2c0.4-0.2,0.7-0.4,1-0.6c0.1-0.1,0.2-0.2,0.2-0.3s0-0.2,0-0.3
					C198.3,71.6,198.1,71.3,197.7,71z"/>
			</g>
		</g>
	</g>
</g>
</svg>
