<svg version="1.1" xmlns="http://www.w3.org/2000/svg" xmlns:xlink="http://www.w3.org/1999/xlink" x="0px" y="0px"
	 width="277.25px" height="85.56px" viewBox="0 0 277.25 85.56" style="enable-background:new 0 0 277.25 85.56;"
	 xml:space="preserve">
<style type="text/css">
	.st0{fill:#FFBC25;}
	.st1{fill:#FBBB2C;}
	.st2{fill:url(#SVGID_1_);}
	.st3{fill:url(#SVGID_2_);}
	.st4{fill:#FFBD23;stroke:#B17B3B;stroke-width:0.5;stroke-miterlimit:10;}
	.st5{fill:#1D1D1B;}
	.st6{fill:#FFBC25;stroke:#B17B3A;stroke-width:0.25;stroke-miterlimit:10;}
	.st7{fill:#ED3237;}
	.st8{fill:#FFFFFF;}
	.st9{fill:url(#SVGID_3_);}
	.st10{fill:url(#SVGID_4_);}
</style>
<defs>
</defs>
<g>
	<g>
		<path class="st0" d="M226.9,82.08c0,0.03-0.04,0.05-0.13,0.06c-0.17,0.03-0.58,0.04-1.25,0.04c-0.57,0-0.96-0.01-1.17-0.04
			c-0.1-0.01-0.15-0.02-0.16-0.03c-0.03-0.01-0.06-0.05-0.09-0.13c-0.07-0.16-0.16-0.41-0.29-0.73c-0.17-0.42-0.44-1.04-0.8-1.86
			c-0.08-0.16-0.26-0.25-0.54-0.27c0.13,0.01-0.09,0.01-0.67,0.01c-0.07,0-0.1,0.11-0.1,0.32c0,0.29,0.03,0.71,0.08,1.28
			c0.05,0.57,0.08,0.99,0.08,1.28c0,0.07-0.02,0.11-0.06,0.13c-0.06,0-0.12,0.01-0.18,0.01c-0.26,0.02-0.66,0.03-1.21,0.03
			c-0.62,0-1-0.01-1.13-0.04s-0.19-0.09-0.19-0.2c0-0.46,0.02-1.16,0.07-2.09c0.05-0.93,0.07-1.63,0.07-2.1
			c0-1.78-0.04-3.16-0.12-4.16l-0.01-0.09c0-0.07,0.06-0.12,0.21-0.14c0.14-0.03,0.81-0.05,2-0.08c0.81-0.02,1.45-0.03,1.93-0.03
			c1,0,1.81,0.22,2.44,0.65c0.71,0.49,1.07,1.19,1.07,2.11c0,0.61-0.09,1.1-0.28,1.47c-0.18,0.37-0.52,0.72-1.02,1.06
			c-0.1,0.07-0.15,0.13-0.15,0.19c0,0,0.27,0.52,0.8,1.58C226.63,81.38,226.9,81.97,226.9,82.08z M224.15,76.43
			c0-0.51-0.17-0.87-0.52-1.06c-0.27-0.15-0.69-0.23-1.27-0.23c-0.42,0-0.64,0.06-0.66,0.18c-0.03,0.14-0.04,0.55-0.04,1.23
			c0,0.1,0,0.24,0.01,0.43c0,0.19,0.01,0.33,0.01,0.42c0,0.02,0.07,0.04,0.21,0.06c0.27,0.04,0.55,0.06,0.84,0.06
			C223.67,77.52,224.15,77.16,224.15,76.43z"/>
	</g>
	<g>
		<path class="st1" d="M222.99,85.56c-4.32,0-7.83-3.51-7.83-7.83c0-4.32,3.51-7.83,7.83-7.83c4.32,0,7.83,3.51,7.83,7.83
			C230.83,82.04,227.31,85.56,222.99,85.56z M222.99,71.17c-3.61,0-6.55,2.94-6.55,6.55s2.94,6.55,6.55,6.55
			c3.61,0,6.55-2.94,6.55-6.55S226.6,71.17,222.99,71.17z"/>
	</g>
</g>
<linearGradient id="SVGID_1_" gradientUnits="userSpaceOnUse" x1="138.188" y1="47.6696" x2="138.4915" y2="16.8102">
	<stop  offset="0.013" style="stop-color:#D51324"/>
	<stop  offset="0.2805" style="stop-color:#D21323"/>
	<stop  offset="0.5132" style="stop-color:#C71322"/>
	<stop  offset="0.7329" style="stop-color:#B5121F"/>
	<stop  offset="0.9436" style="stop-color:#9C111B"/>
	<stop  offset="1" style="stop-color:#94111A"/>
</linearGradient>
<path class="st2" d="M271.4,28.59c-1.46-5.85-3.51-10.25-8.28-11.6c-11.97-3.38-27.34-0.69-27.34-0.69s-50.66,8.56-95.66,9.37
	c-46.73,0.84-102.34-9.12-117.51-12.2c-11.73-2.38-12.85,2.07-17.27,13.7C3.62,39.5,4.59,51.04,8.23,63.91
	c1.43,5.07,6.72,7.92,11.59,6.22c73.4-25.56,163.55-24.92,237.06-0.16c4.87,1.64,10.11-1.23,11.52-6.29
	C271.84,51.34,272.83,40.24,271.4,28.59z"/>
<linearGradient id="SVGID_2_" gradientUnits="userSpaceOnUse" x1="138.3731" y1="29.3659" x2="138.3731" y2="1.3378">
	<stop  offset="0" style="stop-color:#A31122"/>
	<stop  offset="0.844" style="stop-color:#891419"/>
</linearGradient>
<path class="st3" d="M22.61,13.48c15.17,3.09,70.78,13.04,117.51,12.2c45-0.81,95.66-9.37,95.66-9.37s15.37-2.7,27.34,0.69
	c4.77,1.35,6.82,5.75,8.28,11.6c-0.55-4.46-1.44-8.99-2.69-13.72c-1.3-4.91-6.2-7.83-11-6.6C179.02,28.53,97.6,28.56,18.95,8.08
	c-4.81-1.25-9.7,1.67-11.02,6.58c-1.16,4.31-2.02,8.45-2.58,12.51C9.76,15.54,10.89,11.09,22.61,13.48z"/>
<path class="st4" d="M269.87,6c-1.9-4.66-7.03-6.91-11.64-5.15c-35.95,13.79-76.43,18.78-116.99,19.16
	c-42.31,0.4-84.72-4.42-122.2-19.08c-4.62-1.81-9.8,0.45-11.7,5.13c-9.44,23.28-9.4,42.51-0.21,65.57c1.94,4.86,7.43,7.11,12.1,4.97
	c35.29-16.2,78.56-22.86,121.69-22.46c41.59,0.39,83.06,7.26,117.12,22.56c4.66,2.09,10.1-0.17,12.03-5
	C279.37,48.41,279.3,29.15,269.87,6z M268.4,63.69c-1.41,5.06-6.65,7.93-11.52,6.29C183.37,45.22,93.22,44.57,19.82,70.13
	c-4.87,1.7-10.16-1.15-11.59-6.22C4.59,51.04,3.62,39.5,5.35,27.18c0.57-4.06,1.43-8.21,2.58-12.51c1.32-4.91,6.22-7.83,11.02-6.58
	C97.6,28.56,179.02,28.53,257.71,8.27c4.8-1.24,9.69,1.69,11,6.6c1.26,4.73,2.15,9.26,2.69,13.72
	C272.83,40.24,271.84,51.34,268.4,63.69z"/>
<g>
	<path class="st5" d="M24.27,21.3c0.99-0.16,2.33-0.13,4.04,0.07c2.46,0.29,4.22,0.74,5.29,1.33c2.44,1.4,4.05,3.7,5.13,6.91
		c0.34,0.94,0.65,2.12,0.95,3.54c0.3,1.42,0.48,2.41,0.47,2.97c0,0.25-0.04,0.37-0.1,0.37c-0.26,0.07-1.47,0.21-3.61,0.42
		c-2.14,0.22-3.6,0.34-4.39,0.36c-0.1,0-0.2-0.01-0.29-0.05c-0.06,0-0.09,0-0.15,0c-0.13-0.11-0.26-0.47-0.38-1.07
		c-0.24-1.33-1-2.41-2.3-3.28c-0.59-0.36-1.38-0.55-2.35-0.57c-1.5-0.03-2.7,0.28-3.58,0.97c-1.88,1.45-2.89,3.83-2.75,7
		c0.15,3.22,1.42,5.64,3.48,7.19c1.53,1.14,2.92,1.62,4.14,1.46c0.32-0.04,0.62-0.15,0.88-0.28c0.43-0.22,0.97-0.7,1.57-1.45
		c0.6-0.75,0.99-1.43,1.18-2.06c0.1-0.27,0.5-0.44,1.22-0.5c0.81-0.07,2.04-0.07,3.62-0.07c3.03-0.01,4.65-0.05,4.72,0.01
		c0.14,0.09-0.15,1.03-0.75,2.82c-0.6,1.79-1.06,3.13-1.48,4c-1.22,2.6-2.61,4.32-4.42,5.13c-0.64,0.27-1.48,0.5-2.53,0.71
		c-2.56,0.51-4.82,0.82-6.78,0.85c-3.41,0.04-6.54-1.39-9.06-4.71c-0.99-1.31-2.07-3.44-2.99-6.48c-0.92-3.04-1.36-5.95-1.39-8.63
		c-0.06-4.85,1.37-8.92,3.74-11.91C17.75,23.38,20.8,21.77,24.27,21.3z"/>
	<path class="st5" d="M57.51,22.58c0.44-0.05,1.2-0.02,2.29,0.08c2.92,0.27,5.12,0.61,6.59,1.05c2.09,0.62,3.75,1.49,4.92,2.6
		c0.97,0.91,1.79,2.38,2.58,4.35c0.79,1.97,1.37,4.03,1.72,6.15c0.17,1.02,0.27,1.89,0.29,2.61c0.11,2.9-0.57,5.31-2.12,7.34
		c-1.55,2.03-3.88,3.55-7.07,4.62c-1.31,0.41-3.2,0.74-5.65,1.01c-2.36,0.26-4.4,0.35-6.13,0.26c-4.53-0.38-7.92-1.93-9.88-4.86
		c-1.37-2.05-2.18-4.35-2.33-6.79c-0.04-0.65-0.05-1.15-0.03-1.5c0.04-4.8,1.76-8.9,4.62-11.96C50.17,24.46,53.66,22.92,57.51,22.58
		z M62.21,31.79c-1.11-0.54-1.91-0.86-2.43-0.94c-0.07,0-0.14-0.01-0.22-0.03c-0.08-0.02-0.14-0.03-0.17-0.03
		c-0.91-0.04-1.95,0.3-3.1,1.03c-1.15,0.73-2.11,1.71-2.88,2.9c-0.75,1.17-1.17,2.32-1.21,3.42c0,0.1,0,0.24-0.02,0.43
		c-0.01,0.19-0.01,0.32-0.01,0.39c0.02,0.68,0.35,1.59,1.03,2.7c1.65,2.73,3.77,3.93,6.12,3.78c0.39-0.02,0.78-0.09,1.15-0.21
		c1.26-0.41,2.46-1.21,3.63-2.4c1.17-1.18,1.99-2.4,2.44-3.66c0.18-0.5,0.27-0.85,0.27-1.05c0-0.15-0.12-0.59-0.36-1.31
		c-0.28-0.84-0.82-1.77-1.57-2.74C64.08,33.03,63.19,32.26,62.21,31.79z"/>
	<path class="st5" d="M89.3,26.59c0.97-0.13,2.33-0.15,4.1-0.07c2.55,0.11,4.4,0.35,5.58,0.71c2.7,0.86,4.69,2.36,6.07,4.55
		c0.43,0.64,0.83,1.44,1.2,2.42c0.37,0.97,0.57,1.65,0.57,2.04c0,0.17-0.04,0.25-0.1,0.25c-0.26,0.05-1.49,0.13-3.66,0.24
		c-2.17,0.12-3.66,0.18-4.45,0.17c-0.1,0-0.2-0.01-0.3-0.04c-0.06,0-0.09,0-0.15,0c-0.13-0.08-0.27-0.31-0.4-0.71
		c-0.26-0.88-1.07-1.59-2.44-2.17c-0.62-0.23-1.43-0.36-2.42-0.38c-1.52-0.02-2.72,0.17-3.6,0.6c-1.85,0.9-2.8,2.37-2.76,4.36
		c0.04,2.01,1.1,3.57,3.02,4.65c1.42,0.8,2.76,1.18,4.01,1.14c0.33-0.01,0.64-0.07,0.93-0.14c0.47-0.12,1.07-0.4,1.76-0.87
		c0.69-0.46,1.16-0.89,1.4-1.3c0.12-0.18,0.55-0.27,1.27-0.28c0.83-0.01,2.07,0.04,3.68,0.09c3.07,0.11,4.71,0.14,4.78,0.19
		c0.14,0.07-0.23,0.7-1.06,1.9c-0.83,1.2-1.51,2.08-2.07,2.65c-1.67,1.69-3.45,2.74-5.45,3.14c-0.7,0.13-1.6,0.22-2.7,0.27
		c-2.69,0.13-5.02,0.15-7,0.01c-3.43-0.24-6.21-1.39-8.19-3.56c-0.78-0.86-1.52-2.22-2.15-4.09c-0.63-1.87-0.93-3.64-0.93-5.25
		c-0.01-2.93,1.11-5.36,3.17-7.21C83.07,28.06,85.86,26.99,89.3,26.59z"/>
	<path class="st5" d="M123.02,26.18c0.43-0.06,1.2-0.08,2.31-0.06c2.97,0.05,5.24,0.2,6.8,0.46c2.21,0.37,4.03,0.98,5.38,1.82
		c1.11,0.69,2.15,1.85,3.13,3.45c0.98,1.6,1.66,3.29,2.02,5.06c0.17,0.85,0.25,1.57,0.25,2.17c0,2.41-0.95,4.41-2.81,6
		c-1.86,1.59-4.48,2.68-7.89,3.31c-1.39,0.23-3.34,0.36-5.85,0.4c-2.41,0.03-4.47-0.04-6.18-0.23c-4.45-0.59-7.51-1.92-9.1-4.08
		c-1.11-1.51-1.71-3.13-1.75-4.83c-0.01-0.46,0-0.8,0.03-1.04c0.18-3.34,1.62-6.17,4.15-8.42
		C116.04,27.92,119.23,26.63,123.02,26.18z M128.96,33.01c-1.16-0.4-2-0.62-2.53-0.67c-0.07,0-0.14-0.01-0.22-0.02
		c-0.08-0.01-0.14-0.02-0.17-0.02c-0.93-0.01-1.94,0.27-3.05,0.83c-1.11,0.56-2.03,1.29-2.77,2.17c-0.73,0.86-1.14,1.7-1.2,2.5
		c0,0.07-0.01,0.18-0.02,0.32c-0.02,0.14-0.02,0.24-0.02,0.28c0,0.49,0.31,1.16,0.93,2c1.5,2.05,3.46,3.04,5.84,3.02
		c0.4,0,0.79-0.04,1.19-0.11c1.32-0.26,2.61-0.83,3.89-1.72c1.28-0.89,2.17-1.82,2.66-2.81c0.2-0.39,0.3-0.67,0.3-0.83
		c0-0.11-0.11-0.47-0.35-1.04c-0.28-0.66-0.85-1.39-1.64-2.15C130.93,33.95,129.98,33.37,128.96,33.01z"/>
	<path class="st5" d="M146.1,48.22c0-0.18-0.13-3.53-0.56-10.3c-0.42-6.77-0.69-10.17-0.7-10.33c0-0.35-0.01-0.53-0.01-0.87
		c0.37,0.03,0.56,0.04,0.94,0.06c0.36,0.02,2.18,0.07,5.45,0.13c1.79,0.04,2.69,0.05,4.48,0.08c-0.04,0.42-0.06,0.63-0.11,1.06
		c-0.26,2.57-0.38,5.47-0.38,8.64c0,0.9,0.01,1.95,0.09,3.09c0.11,1.85,0.25,3.04,0.35,3.51c0.1,0.47,0.27,0.71,0.5,0.71
		c0.08,0,0.12,0,0.2,0c0.4-0.07,2.49-0.2,6.28-0.39c3.79-0.19,5.97-0.28,6.53-0.27c0.04,0,0.06,0,0.1,0c0.02,0.24,0.02,0.53,0,0.88
		c-0.01,0.16-0.04,0.47-0.08,0.91c-0.05,0.44-0.08,0.8-0.1,1.08c-0.14,1.11-0.22,1.66-0.38,2.76c-3.65-0.06-5.48-0.08-9.13-0.1
		c-6.77-0.03-10.55,0.01-11.33,0.03c-0.86,0.01-1.29,0.01-2.15,0.02C146.09,48.64,146.09,48.5,146.1,48.22z"/>
	<path class="st5" d="M179.47,26.99c0.21-0.8,0.42-1.2,0.65-1.21c0.1,0,0.18,0,0.25,0.03c0.3,0.06,1.5,0.05,3.58-0.04
		c1.21-0.05,1.82-0.08,3.03-0.14c2.42,4.34,3.54,6.64,5.39,11.31c2.95,7.28,3.55,11.3,3.46,11.88c-0.01,0.08-1.26,0.28-3.73,0.61
		c-2.47,0.33-3.84,0.48-4.09,0.47c-0.02,0-0.03,0-0.05,0c-0.09-0.08-0.25-1.31-0.66-3.75c-0.27-1.49-0.42-2.24-0.76-3.75
		c-1.09-0.04-1.63-0.05-2.72-0.09c-0.46-0.03-0.97-0.05-1.53-0.06c-0.53-0.01-0.86,0.01-1,0.06c-0.13,0.05-0.24,0.16-0.32,0.32
		c0,0.02-0.23,0.65-0.73,1.86c-0.49,1.21-0.99,2.38-1.5,3.5c-0.51,1.12-0.81,1.69-0.88,1.73c-0.04,0.02-0.17,0.03-0.39,0.02
		c-0.78-0.03-2.08-0.2-3.92-0.51c-1.84-0.3-2.76-0.49-2.75-0.59c0.01-0.07,0.27-0.62,0.77-1.67c0.5-1.05,1.12-2.34,1.83-3.89
		c0.71-1.55,1.47-3.27,2.23-5.15c0.76-1.89,1.42-3.63,1.98-5.22c0.56-1.59,1.01-2.94,1.38-4.06
		C179.19,27.99,179.28,27.65,179.47,26.99z M185.2,37.65c-0.12-0.38-0.18-0.56-0.3-0.94c-0.17-0.62-0.35-1.22-0.54-1.79
		c-0.2-0.57-0.33-0.85-0.4-0.85c-0.07,0-0.27,0.58-0.66,1.74c-0.38,1.16-0.59,1.83-0.59,2.03c0,0.15,0.43,0.22,1.29,0.23
		c0.83,0,1.24-0.06,1.25-0.18C185.25,37.78,185.23,37.7,185.2,37.65z"/>
	<path class="st5" d="M198.03,25.89c-0.07-0.32-0.1-0.48-0.18-0.8c0.37,0.01,0.56,0.01,0.94,0.02c0.33,0.01,2.12-0.03,5.38-0.13
		c1.78-0.05,2.67-0.08,4.45-0.13c0.08,0.88,0.12,1.33,0.17,2.22c0.07,1.13,0.44,3.78,0.55,8.01c0.22,7.94-0.71,12.61-0.82,14.15
		c-0.08,1.18-0.18,1.83-0.2,1.94c-0.02,0.08-1.6-0.02-4.75-0.26c-1.88-0.13-2.81-0.18-4.69-0.3c0.64-4.61,0.77-7.05,0.61-11.89
		C199.24,31.51,198.24,27.28,198.03,25.89z"/>
	<path class="st5" d="M230.35,28.61c-0.39-2.42-0.64-3.62-1.25-5.95c2.13-0.13,3.19-0.19,5.32-0.33c2.14-0.14,3.22-0.21,5.36-0.36
		c0.04,0.03,0.33,1.31,0.59,3.86c0.16,1.53,0.43,3.71,0.65,6.52c0.32,4.14,0.37,8.5,0.06,12.94c-0.31,4.44-0.85,7.54-1.03,9.45
		c-0.04,0.28-0.07,0.42-0.12,0.69c-1.2-0.14-1.8-0.2-3.01-0.33c-1.65-0.19-2.98-0.36-3.99-0.5c-0.47-0.07-0.71-0.1-1.18-0.17
		c-0.84-0.16-1.26-0.23-2.1-0.38c-0.74-2.01-1.15-3.01-2.08-5c-0.3-0.65-0.73-1.57-1.32-2.76c-0.59-1.19-1.15-2.21-1.64-3.06
		c-0.49-0.85-0.88-1.5-1.15-1.93c-0.69-1.11-1.05-1.66-1.8-2.74c0.02,1.45,0.01,2.18-0.05,3.63c-0.1,2.77-0.24,5.02-0.29,6.77
		c-0.05,1.98-0.19,3.07-0.25,3.3c-0.02,0.09-1.07,0.01-3.15-0.2c-0.79-0.08-1.18-0.12-1.97-0.2c-2.05-0.22-3.08-0.32-5.13-0.52
		c0.2-1.12,0.28-1.68,0.43-2.82c0.05-0.47,0.17-1.33,0.32-2.6c0.14-1.27,0.31-3.01,0.38-5.22c0.08-2.21,0.03-4.01-0.04-5.38
		c-0.18-4.15-0.44-6.24-1.24-10.23c1.79-0.1,2.69-0.16,4.47-0.27c3.47-0.19,5.45-0.29,5.95-0.27c0.61,0.01,0.92,0.01,1.53,0.02
		c1.99,2.37,2.94,3.61,4.71,6.18c0.65,0.92,1.35,1.96,2.08,3.13c0.73,1.17,1.24,2.05,1.55,2.6c0.32,0.55,0.49,0.83,0.52,0.83
		c0-0.06,0-0.09,0-0.15c0-0.13-0.02-0.3-0.07-0.51c-0.05-0.21-0.09-0.41-0.13-0.61C231.15,35.41,231.06,32.89,230.35,28.61z"/>
	<path class="st5" d="M249.83,21.82c0.08-1.24,0.21-1.87,0.42-1.9c0.09-0.01,0.18,0,0.24,0.02c0.3,0.07,1.45-0.02,3.46-0.29
		c1.17-0.16,1.75-0.24,2.93-0.4c2.72,6.71,3.42,10.56,4.97,18.48c2.47,12.36,3.33,19.18,3.24,20.11c-0.01,0.12-1.23,0.3-3.69,0.49
		c-2.46,0.2-3.83,0.25-4.08,0.2c-0.02,0-0.03-0.01-0.05-0.01c-0.07-0.13-0.05-2.06-0.26-6c-0.14-2.41-0.24-3.64-0.48-6.09
		c-0.98-0.14-1.47-0.21-2.45-0.35c-0.41-0.09-0.87-0.16-1.38-0.21c-0.47-0.05-0.77-0.05-0.9,0.02c-0.12,0.06-0.23,0.23-0.31,0.49
		c0,0.04-0.25,1.01-0.84,2.85c-0.59,1.84-1.24,3.58-1.95,5.22c-0.71,1.64-1.17,2.45-1.25,2.51c-0.04,0.03-0.17,0.02-0.38-0.02
		c-0.74-0.14-1.95-0.57-3.6-1.23c-1.66-0.67-2.46-1.05-2.42-1.18c0.03-0.1,0.46-0.86,1.18-2.35c0.72-1.49,1.55-3.34,2.4-5.62
		c0.85-2.28,1.65-4.86,2.38-7.74c0.72-2.88,1.26-5.58,1.68-8.05c0.42-2.47,0.7-4.58,0.9-6.33
		C249.71,23.38,249.75,22.86,249.83,21.82z M255.51,38.68c-0.1-0.61-0.15-0.92-0.25-1.53c-0.14-1.01-0.3-1.98-0.47-2.91
		c-0.17-0.92-0.3-1.38-0.36-1.38c-0.06,0-0.24,0.94-0.58,2.79c-0.35,1.85-0.55,2.92-0.55,3.24c0,0.24,0.37,0.37,1.14,0.41
		c0.73,0.03,1.1-0.05,1.11-0.25C255.55,38.88,255.54,38.76,255.51,38.68z"/>
</g>
<g>
	<path class="st6" d="M23.65,20.01c0.99-0.15,2.32-0.11,4.02,0.11c2.45,0.32,4.2,0.78,5.25,1.39c2.4,1.43,3.96,3.75,4.97,6.99
		c0.32,0.95,0.6,2.14,0.88,3.57c0.28,1.43,0.44,2.43,0.42,2.99c-0.01,0.25-0.05,0.37-0.11,0.37c-0.26,0.07-1.47,0.2-3.61,0.4
		c-2.15,0.2-3.61,0.31-4.39,0.32c-0.1,0-0.2-0.02-0.29-0.05c-0.06,0-0.09,0-0.15,0c-0.13-0.11-0.25-0.47-0.36-1.09
		c-0.21-1.34-0.95-2.44-2.24-3.33c-0.59-0.37-1.36-0.57-2.34-0.6c-1.49-0.05-2.7,0.26-3.6,0.94c-1.91,1.44-2.97,3.83-2.89,7.03
		c0.09,3.25,1.32,5.72,3.36,7.3c1.51,1.17,2.9,1.67,4.12,1.52c0.32-0.04,0.62-0.15,0.88-0.28c0.44-0.22,0.98-0.7,1.59-1.46
		c0.61-0.76,1.02-1.44,1.21-2.07c0.1-0.27,0.51-0.44,1.22-0.49c0.81-0.06,2.04-0.05,3.63-0.04c3.03,0.01,4.65-0.02,4.72,0.05
		c0.14,0.1-0.16,1.04-0.79,2.85c-0.63,1.81-1.11,3.16-1.53,4.04c-1.26,2.63-2.67,4.36-4.49,5.17c-0.64,0.27-1.49,0.5-2.54,0.7
		c-2.57,0.5-4.84,0.79-6.8,0.8c-3.41,0.01-6.53-1.49-9-4.88c-0.97-1.34-2.02-3.52-2.89-6.6c-0.87-3.08-1.25-6.04-1.22-8.74
		c0.05-4.9,1.56-8.98,4-11.95C17.1,22.01,20.18,20.44,23.65,20.01z"/>
	<path class="st6" d="M56.77,21.59c0.44-0.05,1.2-0.02,2.28,0.09c2.9,0.29,5.1,0.65,6.56,1.09c2.08,0.63,3.72,1.51,4.87,2.63
		c0.95,0.92,1.75,2.39,2.51,4.37c0.76,1.98,1.31,4.05,1.63,6.19c0.15,1.03,0.24,1.91,0.26,2.63c0.07,2.92-0.63,5.35-2.2,7.39
		c-1.58,2.04-3.92,3.57-7.12,4.64c-1.32,0.41-3.21,0.74-5.67,1c-2.37,0.25-4.41,0.34-6.15,0.23c-4.53-0.4-7.91-2-9.83-4.98
		c-1.35-2.09-2.12-4.41-2.23-6.88c-0.03-0.66-0.03-1.17,0-1.52c0.12-4.84,1.91-8.95,4.82-12C49.41,23.42,52.93,21.9,56.77,21.59z
		 M61.31,30.86c-1.1-0.55-1.9-0.87-2.42-0.96c-0.07,0-0.14-0.01-0.22-0.03c-0.08-0.02-0.14-0.03-0.17-0.03
		c-0.91-0.04-1.96,0.29-3.11,1.02c-1.16,0.73-2.14,1.71-2.92,2.9c-0.77,1.17-1.2,2.33-1.27,3.43c0,0.1-0.01,0.24-0.02,0.44
		c-0.01,0.19-0.02,0.33-0.02,0.39c0.01,0.68,0.33,1.6,0.99,2.73c1.61,2.77,3.72,3.99,6.07,3.85c0.39-0.02,0.78-0.09,1.16-0.2
		c1.27-0.41,2.47-1.21,3.66-2.4c1.19-1.19,2.02-2.41,2.48-3.68c0.19-0.5,0.28-0.85,0.28-1.06c0-0.15-0.11-0.6-0.34-1.32
		c-0.27-0.84-0.8-1.78-1.53-2.76C63.16,32.12,62.28,31.34,61.31,30.86z"/>
	<path class="st6" d="M88.43,25.79c0.97-0.13,2.33-0.14,4.09-0.06c2.54,0.12,4.39,0.37,5.56,0.73c2.68,0.87,4.66,2.38,6.02,4.57
		c0.42,0.64,0.81,1.45,1.18,2.42c0.36,0.98,0.56,1.66,0.55,2.04c0,0.17-0.04,0.25-0.1,0.25c-0.26,0.05-1.49,0.12-3.66,0.24
		c-2.17,0.11-3.66,0.17-4.45,0.16c-0.1,0-0.2-0.01-0.3-0.04c-0.06,0-0.09,0-0.15,0c-0.13-0.08-0.26-0.31-0.39-0.72
		c-0.25-0.88-1.05-1.6-2.42-2.18c-0.62-0.24-1.42-0.37-2.41-0.39c-1.52-0.03-2.72,0.16-3.6,0.59c-1.86,0.9-2.83,2.37-2.8,4.37
		c0.02,2.03,1.06,3.6,2.98,4.69c1.41,0.81,2.75,1.19,4,1.16c0.33-0.01,0.65-0.06,0.93-0.14c0.47-0.12,1.07-0.4,1.77-0.87
		c0.69-0.46,1.17-0.9,1.41-1.3c0.12-0.18,0.55-0.27,1.28-0.28c0.83-0.01,2.07,0.04,3.68,0.1c3.07,0.11,4.71,0.15,4.78,0.2
		c0.13,0.07-0.23,0.71-1.07,1.91c-0.83,1.21-1.52,2.09-2.09,2.66c-1.68,1.7-3.47,2.75-5.47,3.16c-0.7,0.13-1.6,0.22-2.7,0.27
		c-2.69,0.13-5.03,0.14-7.01-0.01c-3.44-0.25-6.21-1.42-8.17-3.62c-0.77-0.87-1.5-2.24-2.11-4.13c-0.61-1.89-0.89-3.67-0.87-5.29
		c0.03-2.94,1.17-5.38,3.26-7.23C82.19,27.23,84.99,26.17,88.43,25.79z"/>
	<path class="st6" d="M122.08,25.48c0.43-0.06,1.19-0.08,2.3-0.06c2.97,0.06,5.23,0.21,6.78,0.47c2.2,0.38,4.01,0.98,5.36,1.82
		c1.11,0.69,2.14,1.85,3.12,3.44c0.97,1.6,1.66,3.29,2.01,5.05c0.17,0.85,0.25,1.57,0.25,2.17c0,2.41-0.95,4.41-2.8,6.01
		c-1.86,1.6-4.49,2.69-7.9,3.32c-1.4,0.24-3.35,0.37-5.86,0.4c-2.41,0.03-4.48-0.04-6.19-0.23c-4.46-0.59-7.52-1.94-9.11-4.11
		c-1.11-1.52-1.7-3.15-1.73-4.86c-0.01-0.46,0.01-0.81,0.04-1.05c0.2-3.35,1.66-6.18,4.21-8.42
		C115.11,27.2,118.3,25.92,122.08,25.48z M127.98,32.32c-1.15-0.4-1.99-0.63-2.52-0.68c-0.07,0-0.14-0.01-0.22-0.02
		c-0.08-0.01-0.14-0.02-0.17-0.02c-0.93-0.01-1.94,0.26-3.05,0.82c-1.11,0.56-2.04,1.29-2.78,2.17c-0.73,0.86-1.15,1.7-1.22,2.5
		c0,0.07-0.01,0.18-0.02,0.32c-0.02,0.14-0.02,0.24-0.02,0.28c0,0.49,0.31,1.17,0.92,2.01c1.5,2.06,3.46,3.05,5.84,3.04
		c0.4,0,0.79-0.04,1.19-0.11c1.32-0.26,2.61-0.84,3.89-1.73c1.28-0.89,2.17-1.83,2.67-2.82c0.2-0.39,0.3-0.67,0.3-0.83
		c0-0.11-0.11-0.47-0.35-1.04c-0.28-0.66-0.84-1.39-1.63-2.15C129.95,33.25,129,32.67,127.98,32.32z"/>
	<path class="st6" d="M145.13,47.55c0-0.18-0.15-3.55-0.58-10.32c-0.43-6.77-0.69-10.15-0.69-10.31c0-0.35,0-0.52-0.01-0.87
		c0.37,0.03,0.56,0.04,0.93,0.06c0.36,0.02,2.17,0.07,5.44,0.13c1.79,0.04,2.68,0.05,4.47,0.08c-0.04,0.42-0.06,0.63-0.1,1.05
		c-0.26,2.56-0.38,5.44-0.37,8.61c0,0.9,0.02,1.95,0.09,3.09c0.12,1.85,0.26,3.04,0.37,3.51c0.11,0.47,0.27,0.71,0.5,0.71
		c0.08,0,0.12,0,0.2,0c0.4-0.07,2.49-0.2,6.29-0.4c3.79-0.2,5.97-0.29,6.53-0.28c0.04,0,0.06,0,0.1,0c0.02,0.24,0.03,0.53,0.01,0.88
		c-0.01,0.16-0.03,0.47-0.07,0.91c-0.04,0.44-0.07,0.8-0.09,1.08c-0.13,1.11-0.21,1.67-0.36,2.76c-3.66-0.05-5.49-0.06-9.16-0.08
		c-6.79-0.02-10.57,0.03-11.36,0.05c-0.86,0.01-1.29,0.01-2.15,0.02C145.12,47.97,145.12,47.83,145.13,47.55z"/>
	<path class="st6" d="M178.41,26.31c0.21-0.79,0.42-1.19,0.64-1.2c0.1,0,0.18,0,0.25,0.03c0.3,0.06,1.49,0.05,3.57-0.05
		c1.21-0.05,1.81-0.08,3.02-0.14c2.45,4.3,3.58,6.58,5.47,11.22c3.02,7.24,3.69,11.26,3.6,11.84c-0.01,0.08-1.26,0.29-3.73,0.62
		c-2.47,0.34-3.84,0.5-4.1,0.49c-0.02,0-0.03,0-0.05,0c-0.09-0.08-0.26-1.31-0.71-3.75c-0.28-1.49-0.45-2.24-0.8-3.74
		c-1.09-0.03-1.63-0.05-2.73-0.08c-0.46-0.03-0.97-0.05-1.54-0.06c-0.53-0.01-0.86,0.01-1,0.06c-0.13,0.05-0.24,0.16-0.31,0.33
		c0,0.02-0.23,0.65-0.71,1.86c-0.48,1.21-0.97,2.38-1.47,3.51c-0.5,1.12-0.79,1.7-0.86,1.74c-0.04,0.02-0.17,0.03-0.39,0.02
		c-0.78-0.03-2.09-0.2-3.93-0.49c-1.85-0.3-2.77-0.49-2.76-0.58c0.01-0.07,0.26-0.62,0.76-1.67c0.49-1.05,1.1-2.34,1.8-3.89
		c0.7-1.55,1.44-3.27,2.2-5.15c0.75-1.88,1.4-3.62,1.95-5.2c0.55-1.58,1-2.93,1.36-4.04C178.13,27.3,178.23,26.97,178.41,26.31z
		 M184.21,36.9c-0.12-0.37-0.18-0.56-0.3-0.93c-0.17-0.62-0.36-1.22-0.56-1.78c-0.2-0.57-0.34-0.85-0.4-0.85
		c-0.07,0-0.27,0.58-0.64,1.73c-0.38,1.15-0.58,1.83-0.58,2.02c0,0.15,0.43,0.22,1.29,0.22c0.83,0,1.24-0.06,1.24-0.19
		C184.26,37.03,184.24,36.95,184.21,36.9z"/>
	<path class="st6" d="M196.94,25.18c-0.07-0.32-0.11-0.48-0.18-0.8c0.37,0.01,0.56,0.01,0.94,0.02c0.33,0.01,2.12-0.04,5.37-0.15
		c1.78-0.06,2.67-0.08,4.44-0.15c0.09,0.87,0.13,1.31,0.19,2.2c0.08,1.12,0.47,3.74,0.64,7.95c0.31,7.89-0.55,12.57-0.63,14.1
		c-0.07,1.18-0.15,1.83-0.17,1.94c-0.02,0.08-1.6-0.01-4.77-0.23c-1.88-0.12-2.82-0.17-4.71-0.27c0.57-4.62,0.67-7.05,0.45-11.87
		C198.18,30.74,197.16,26.55,196.94,25.18z"/>
	<path class="st6" d="M229.23,27.71c-0.42-2.39-0.68-3.57-1.32-5.87c2.12-0.14,3.18-0.21,5.3-0.36c2.14-0.15,3.21-0.23,5.34-0.39
		c0.04,0.03,0.35,1.28,0.64,3.81c0.18,1.51,0.48,3.66,0.74,6.45c0.38,4.1,0.51,8.42,0.28,12.85c-0.23,4.42-0.7,7.53-0.84,9.44
		c-0.04,0.28-0.06,0.42-0.1,0.7c-1.21-0.12-1.81-0.18-3.02-0.3c-1.66-0.18-2.99-0.33-4.01-0.47c-0.47-0.06-0.71-0.1-1.19-0.16
		c-0.85-0.15-1.27-0.22-2.12-0.37c-0.78-2-1.22-3-2.18-4.98c-0.31-0.65-0.75-1.56-1.37-2.74c-0.61-1.18-1.19-2.19-1.69-3.04
		c-0.5-0.85-0.9-1.48-1.18-1.92c-0.71-1.1-1.08-1.64-1.84-2.71c0.04,1.44,0.05,2.17,0.01,3.61c-0.05,2.76-0.16,5-0.18,6.75
		c-0.02,1.98-0.13,3.07-0.19,3.29c-0.02,0.09-1.07,0.02-3.16-0.18c-0.79-0.07-1.18-0.11-1.97-0.18c-2.06-0.2-3.09-0.3-5.15-0.48
		c0.18-1.12,0.26-1.68,0.38-2.82c0.04-0.47,0.15-1.33,0.28-2.6c0.12-1.27,0.26-3,0.31-5.2c0.05-2.21-0.03-3.99-0.11-5.35
		c-0.23-4.12-0.51-6.19-1.35-10.14c1.79-0.11,2.68-0.17,4.46-0.29c3.46-0.21,5.44-0.31,5.93-0.3c0.61,0,0.91,0,1.52,0.01
		c2.01,2.33,2.98,3.55,4.78,6.09c0.66,0.91,1.37,1.93,2.12,3.09c0.75,1.16,1.27,2.02,1.59,2.56c0.32,0.54,0.5,0.82,0.53,0.82
		c0-0.06,0-0.09,0-0.15c0-0.13-0.03-0.3-0.08-0.51c-0.05-0.21-0.1-0.41-0.14-0.6C230.14,34.45,230,31.95,229.23,27.71z"/>
	<path class="st6" d="M248.7,20.84c0.05-1.22,0.17-1.84,0.39-1.87c0.09-0.01,0.18-0.01,0.25,0.02c0.31,0.07,1.46-0.03,3.48-0.32
		c1.17-0.17,1.76-0.25,2.95-0.42c2.89,6.57,3.65,10.35,5.22,18.16c2.52,12.21,3.35,19.07,3.27,20.01c-0.01,0.12-1.22,0.32-3.64,0.54
		c-2.43,0.23-3.78,0.3-4.03,0.25c-0.02,0-0.03-0.01-0.05-0.01c-0.07-0.13-0.07-2.07-0.3-6c-0.15-2.41-0.26-3.63-0.51-6.07
		c-0.98-0.13-1.46-0.19-2.44-0.31c-0.41-0.08-0.87-0.15-1.37-0.19c-0.47-0.05-0.77-0.04-0.89,0.03c-0.12,0.07-0.23,0.23-0.31,0.49
		c0,0.04-0.24,1.01-0.81,2.85c-0.57,1.84-1.19,3.59-1.88,5.23c-0.68,1.65-1.13,2.46-1.2,2.52c-0.04,0.03-0.17,0.02-0.38-0.02
		c-0.73-0.14-1.94-0.55-3.59-1.2c-1.65-0.65-2.45-1.02-2.42-1.15c0.03-0.1,0.44-0.87,1.14-2.36c0.7-1.49,1.5-3.35,2.31-5.63
		c0.81-2.28,1.59-4.85,2.28-7.72c0.69-2.86,1.19-5.55,1.57-7.99c0.38-2.44,0.63-4.54,0.8-6.26
		C248.62,22.38,248.65,21.87,248.7,20.84z M254.65,37.44c-0.1-0.61-0.15-0.91-0.26-1.51c-0.15-1-0.31-1.96-0.5-2.87
		c-0.18-0.91-0.31-1.36-0.37-1.36c-0.06,0-0.23,0.93-0.55,2.76c-0.33,1.84-0.52,2.9-0.52,3.22c0,0.24,0.38,0.37,1.14,0.39
		c0.73,0.03,1.1-0.06,1.1-0.26C254.69,37.64,254.67,37.52,254.65,37.44z"/>
</g>
<g>
	<g>
		<path class="st7" d="M200.98,81.79c-41.91-5.08-83.26-5.08-125.17,0c-4.09,0.55-8.11-1.35-8.94-4.29
			c-0.66-2.33-0.99-3.5-1.66-5.83c-0.84-2.94,2.04-5.89,6.4-6.48c44.69-5.46,88.87-5.46,133.56,0c4.36,0.59,7.24,3.54,6.4,6.48
			c-0.66,2.33-0.99,3.5-1.66,5.83C209.08,80.44,205.07,82.34,200.98,81.79z"/>
		<g>
			<path class="st8" d="M74.12,67.98c1.29-0.19,2.37-0.33,3.23-0.44c2.52-0.31,4.44-0.5,5.75-0.59c0.33-0.02,0.49-0.03,0.82-0.05
				c0,0.15,0,0.22-0.01,0.36c0,0.2,0.06,0.58,0.18,1.15c0.07,0.32,0.1,0.48,0.16,0.79c-0.77,0.08-1.15,0.13-1.91,0.22
				c-1.33,0.15-2.11,0.26-2.36,0.32c-0.18,0.04-0.26,0.07-0.44,0.11c0,0.15,0,0.22,0,0.36c0.01,0.21,0.18,1.06,0.52,2.54
				c0.46,2.01,0.73,3.11,0.83,3.29c0.02,0.04,0.06,0.09,0.1,0.13c0.04,0.05,0.09,0.09,0.14,0.12c0.02,0.01,0.03,0.02,0.05,0.04
				c0,0.01-0.55,0.09-1.66,0.24c-0.73,0.09-1.09,0.14-1.82,0.23c-0.31-1.19-0.46-1.78-0.77-2.97c-0.57-2.25-0.96-3.42-1.17-3.53
				c-0.05-0.02-0.73,0.04-2.04,0.2c-0.78,0.09-1.17,0.14-1.95,0.24c-0.05-0.08-0.07-0.13-0.11-0.21c-0.07-0.13-0.18-0.46-0.32-1
				c-0.18-0.71-0.25-1.07-0.2-1.08C71.16,68.44,72.16,68.27,74.12,67.98z"/>
			<path class="st8" d="M83.43,71.87c-0.11-0.54-0.16-0.81-0.27-1.35c0.34-0.04,0.51-0.06,0.84-0.1c0.59-0.07,0.97-0.09,1.13-0.08
				c0.12,0.01,0.18,0.01,0.31,0.02c0.1,0.46,0.15,0.69,0.25,1.15c0.25,1.18,0.55,1.88,0.88,2.1c0.15,0.11,0.33,0.15,0.54,0.12
				c0.03,0,0.08-0.01,0.15-0.02c0.08-0.01,0.14-0.02,0.19-0.03c0.28-0.05,0.47-0.09,0.57-0.12c0.1-0.03,0.2-0.1,0.3-0.21
				c0.11-0.11,0.17-0.23,0.18-0.35c0.01-0.12-0.02-0.41-0.08-0.87c-0.09-0.71-0.16-1.23-0.22-1.53c-0.04-0.21-0.06-0.32-0.1-0.53
				c0.87-0.09,1.31-0.13,2.18-0.22c0.18,0.85,0.27,1.28,0.45,2.13c0.37,1.69,0.58,2.66,0.65,2.89c0.08,0.3,0.12,0.45,0.2,0.75
				c-0.24,0.04-0.36,0.06-0.61,0.1c-0.33,0.05-0.62,0.09-0.86,0.11c-0.1,0.01-0.15,0.02-0.25,0.03c-0.17,0.01-0.29,0.01-0.35,0
				c-0.07-0.01-0.11-0.02-0.14-0.05c-0.02-0.03-0.05-0.08-0.08-0.16c-0.05-0.14-0.11-0.21-0.16-0.21c-0.08,0.01-0.25,0.1-0.52,0.26
				c-0.41,0.25-0.87,0.4-1.38,0.45c-0.77,0.08-1.43-0.06-1.99-0.41c-0.42-0.26-0.76-0.59-1.02-0.99c-0.19-0.29-0.41-0.99-0.64-2.09
				C83.53,72.34,83.5,72.19,83.43,71.87z"/>
			<path class="st8" d="M99.61,68.32c0.05-0.01,0.16-0.03,0.33-0.04c0.78-0.06,1.42-0.05,1.92,0.03c0.64,0.11,1.19,0.41,1.66,0.89
				c0.46,0.48,0.76,1.07,0.89,1.76c0.03,0.2,0.05,0.3,0.09,0.51c-1.09,0.09-1.64,0.13-2.73,0.23c-1.09,0.09-1.64,0.13-2.73,0.23
				c0.07,0.09,0.1,0.14,0.17,0.24c0.19,0.24,0.46,0.43,0.81,0.57c0.34,0.14,0.68,0.2,1.02,0.17c0.21-0.02,0.44-0.15,0.71-0.39
				c0.17-0.15,0.25-0.23,0.42-0.38c0.48-0.01,0.72-0.01,1.2-0.02c0.8-0.01,1.21-0.01,1.24,0.01c0.01,0.01,0.02,0.02,0.02,0.03
				c0.01,0.07-0.07,0.26-0.24,0.56c-0.17,0.3-0.33,0.54-0.49,0.72c-0.42,0.47-0.91,0.77-1.48,0.91c-0.15,0.03-0.36,0.06-0.63,0.08
				c-1.08,0.08-1.87,0.1-2.36,0.05c-0.42-0.04-0.83-0.17-1.24-0.4c-0.4-0.23-0.71-0.49-0.91-0.79c-0.36-0.53-0.61-1.19-0.73-1.96
				c-0.01-0.07-0.02-0.11-0.03-0.18c-0.09-0.63,0.11-1.23,0.61-1.78c0.17-0.16,0.44-0.34,0.8-0.53c0.36-0.19,0.68-0.31,0.98-0.37
				c0.12-0.03,0.26-0.06,0.43-0.1C99.51,68.34,99.6,68.32,99.61,68.32z M101.25,70.24c-0.26-0.09-0.58-0.12-0.95-0.09
				c-0.16,0.01-0.29,0.04-0.41,0.07c-0.18,0.06-0.39,0.18-0.6,0.37c-0.21,0.2-0.31,0.34-0.29,0.43c0,0.03,0.01,0.05,0.03,0.05
				c0.09,0,0.2,0,0.33-0.01c0.17-0.01,0.55-0.05,1.15-0.12c0.57-0.07,0.85-0.1,1.42-0.16c-0.08-0.09-0.11-0.13-0.19-0.22
				C101.64,70.42,101.47,70.31,101.25,70.24z"/>
			<path class="st8" d="M105.04,68.86c-0.15-0.98-0.22-1.47-0.37-2.45c0.42-0.02,0.62-0.03,1.04-0.04c0.69-0.02,1.06,0,1.11,0.04
				c0.05,0.04,0.29,1.25,0.73,3.61c0.44,2.36,0.67,3.57,0.7,3.63c0.02,0.03,0.03,0.05,0.03,0.08c0.01,0.05-0.03,0.08-0.11,0.1
				c-0.08,0.02-0.29,0.05-0.6,0.09c-0.77,0.1-1.19,0.16-1.23,0.16c-0.18,0.03-0.28,0.04-0.46,0.07c-0.1-0.57-0.14-0.86-0.24-1.43
				c-0.05-0.29-0.15-0.93-0.29-1.91C105.19,69.85,105.09,69.19,105.04,68.86z"/>
			<path class="st8" d="M108.84,66.94c0.16-0.1,0.35-0.16,0.56-0.17c0.3-0.02,0.59,0.06,0.85,0.23c0.26,0.17,0.41,0.39,0.44,0.67
				c0.02,0.16-0.02,0.33-0.11,0.52c-0.09,0.19-0.21,0.32-0.35,0.39c-0.14,0.07-0.34,0.12-0.6,0.13c-0.28,0.02-0.48,0-0.62-0.06
				c-0.37-0.14-0.58-0.4-0.63-0.78C108.34,67.49,108.49,67.18,108.84,66.94z M109.54,69.33c0.73-0.11,1.18-0.16,1.35-0.17
				c0.03,0,0.05,0.01,0.08,0.01c0.05,0.25,0.19,0.99,0.4,2.23c0.21,1.24,0.33,1.92,0.34,2.03c0.01,0.12,0.02,0.17,0.03,0.29
				c-0.31,0.04-0.46,0.06-0.77,0.1c-0.78,0.1-1.19,0.15-1.23,0.16c-0.18,0.03-0.28,0.04-0.46,0.07c-0.21-1.84-0.31-2.76-0.52-4.6
				C109.07,69.39,109.23,69.37,109.54,69.33z"/>
			<path class="st8" d="M117.92,67.66c0.29-0.27,0.46-0.41,0.51-0.41c0.03,0,0.4,0.18,1.12,0.56c0.43,0.22,0.64,0.34,1.06,0.56
				c-0.14,0.04-0.21,0.06-0.34,0.09c-0.3,0.09-0.53,0.19-0.67,0.32c-0.12,0.1-0.18,0.15-0.31,0.26c0.11,0.12,0.17,0.18,0.28,0.3
				c0.25,0.29,0.39,0.64,0.42,1.04c0.05,0.65-0.18,1.18-0.67,1.6c-0.32,0.27-0.66,0.47-1.03,0.58c-0.37,0.11-0.96,0.19-1.74,0.25
				c-1.26,0.1-1.95,0.26-2.09,0.47c-0.04,0.07-0.06,0.12-0.05,0.15c0.01,0.05,0.08,0.08,0.24,0.07c0.12-0.01,0.4-0.04,0.81-0.12
				c0.63-0.12,1.39-0.23,2.24-0.26c0.56-0.02,0.96-0.01,1.19,0.03c0.75,0.11,1.3,0.5,1.64,1.17c0.14,0.28,0.22,0.49,0.23,0.64
				c0.02,0.25-0.16,0.54-0.53,0.88c-0.75,0.7-2.18,1.09-4.3,1.19c-2.32,0.11-3.58-0.28-3.78-1.19c0-0.03-0.01-0.08-0.02-0.13
				c-0.01-0.05-0.02-0.09-0.02-0.11c-0.03-0.26,0.05-0.5,0.24-0.73c0.12-0.17,0.18-0.29,0.17-0.37c0-0.01-0.04-0.11-0.12-0.3
				c-0.12-0.28-0.19-0.51-0.21-0.69c-0.03-0.27,0.06-0.51,0.25-0.71c0.22-0.24,0.37-0.36,0.45-0.37c0.08,0-0.05-0.14-0.39-0.4
				c-0.58-0.41-0.89-0.85-0.94-1.3c-0.01-0.11-0.01-0.19,0-0.24c0.02-0.5,0.23-0.95,0.63-1.34c0.69-0.72,1.85-1.12,3.48-1.2
				c0.62-0.03,1.06-0.02,1.33,0.04c0.17,0.03,0.29,0.04,0.35,0.03C117.46,68.02,117.66,67.9,117.92,67.66z M118.23,74.58
				c-0.16-0.08-0.4-0.11-0.71-0.1c-0.47,0.02-1.15,0.14-2.04,0.37c-0.27,0.07-0.48,0.15-0.65,0.25c-0.16,0.1-0.24,0.19-0.24,0.26
				c0,0.03,0.02,0.06,0.05,0.08c0.14,0.09,0.52,0.12,1.12,0.09c1.1-0.05,1.9-0.18,2.39-0.4c0.2-0.1,0.3-0.2,0.29-0.31
				C118.45,74.73,118.37,74.65,118.23,74.58z M116.85,69.74c-0.16-0.05-0.47-0.06-0.93-0.04c-0.59,0.03-1.01,0.09-1.26,0.17
				c-0.34,0.12-0.51,0.29-0.49,0.51c0.01,0.13,0.12,0.25,0.31,0.36c0.36,0.21,0.87,0.3,1.52,0.27c0.35-0.02,0.66-0.07,0.91-0.16
				c0.25-0.09,0.4-0.21,0.43-0.35c0.01-0.02,0.02-0.07,0.01-0.13C117.34,70.05,117.17,69.84,116.85,69.74z"/>
			<path class="st8" d="M124.13,67c0.05-0.01,0.17-0.02,0.34-0.02c0.78-0.02,1.42,0.02,1.91,0.13c0.63,0.14,1.15,0.46,1.57,0.97
				c0.42,0.5,0.65,1.1,0.72,1.8c0.02,0.2,0.02,0.31,0.04,0.51c-1.1,0.03-1.65,0.05-2.74,0.09c-1.1,0.03-1.64,0.05-2.74,0.09
				c0.06,0.1,0.09,0.15,0.15,0.24c0.17,0.25,0.42,0.46,0.75,0.61c0.33,0.16,0.66,0.23,1,0.22c0.21-0.01,0.46-0.12,0.75-0.35
				c0.18-0.14,0.27-0.21,0.45-0.36c0.48,0.02,0.72,0.02,1.2,0.04c0.8,0.03,1.21,0.05,1.23,0.07c0.01,0.01,0.02,0.02,0.02,0.03
				c0,0.07-0.1,0.26-0.29,0.55c-0.2,0.29-0.38,0.52-0.56,0.69c-0.46,0.44-0.98,0.72-1.56,0.84c-0.15,0.02-0.37,0.04-0.64,0.04
				c-1.09,0.03-1.87,0-2.35-0.07c-0.41-0.06-0.81-0.21-1.19-0.46c-0.38-0.25-0.66-0.52-0.83-0.83c-0.31-0.55-0.49-1.21-0.54-1.99
				c0-0.07-0.01-0.11-0.01-0.18c-0.03-0.64,0.23-1.22,0.77-1.74c0.19-0.15,0.47-0.32,0.84-0.48c0.37-0.17,0.71-0.28,1.01-0.32
				c0.12-0.02,0.26-0.05,0.43-0.07C124.03,67.01,124.12,67,124.13,67z M125.58,68.99c-0.26-0.1-0.57-0.15-0.93-0.14
				c-0.16,0-0.3,0.03-0.41,0.05c-0.19,0.05-0.41,0.16-0.63,0.34c-0.22,0.19-0.34,0.33-0.33,0.42c0,0.03,0.01,0.05,0.02,0.05
				c0.09,0.01,0.2,0.01,0.33,0c0.17-0.01,0.56-0.03,1.16-0.06c0.57-0.04,0.86-0.06,1.43-0.09c-0.07-0.09-0.1-0.14-0.17-0.23
				C125.95,69.19,125.8,69.08,125.58,68.99z"/>
			<path class="st8" d="M132.3,67.09c0.26-0.04,0.69-0.06,1.29-0.07c0.58-0.01,1.15,0.01,1.72,0.04c0.56,0.03,0.84,0.08,0.84,0.15
				c0,0.09-0.08,0.35-0.25,0.76c-0.17,0.42-0.28,0.65-0.35,0.71c-0.01,0-0.01,0-0.02,0c-0.08,0-0.3-0.05-0.65-0.13
				c-0.43-0.11-0.85-0.16-1.25-0.16c-0.57,0.01-0.9,0.11-1,0.3c0,0.01,0,0.01,0,0.01c-0.01,0.01-0.01,0.02-0.02,0.03
				c0,0.2,0.56,0.47,1.67,0.8c0.69,0.2,1.14,0.35,1.38,0.47c0.24,0.11,0.41,0.26,0.53,0.43c0.12,0.17,0.18,0.4,0.18,0.66
				c0,0.29-0.07,0.54-0.21,0.77c-0.36,0.51-0.8,0.86-1.33,1.06c-0.36,0.13-0.83,0.2-1.41,0.21c-0.87,0.01-1.85-0.11-2.96-0.35
				c-0.34-0.07-0.52-0.11-0.86-0.18c0.13-0.23,0.2-0.34,0.33-0.57c0.07-0.12,0.17-0.28,0.28-0.48c0.11-0.2,0.17-0.31,0.19-0.33
				c0.05-0.1,0.08-0.14,0.13-0.24c0.33,0.12,0.5,0.18,0.83,0.31c0.93,0.33,1.61,0.49,2.04,0.49c0.08,0,0.17-0.01,0.27-0.03
				c0.45-0.12,0.68-0.25,0.68-0.41c0-0.24-0.42-0.44-1.26-0.6c-1.6-0.31-2.57-0.91-2.92-1.81c-0.04-0.09-0.07-0.19-0.07-0.29
				c-0.01-0.36,0.19-0.69,0.6-0.98C131.12,67.36,131.66,67.18,132.3,67.09z"/>
			<path class="st8" d="M145.62,66.84c0.05-0.01,0.17-0.01,0.34-0.01c0.78,0.01,1.42,0.08,1.9,0.21c0.61,0.17,1.11,0.51,1.49,1.03
				c0.37,0.52,0.56,1.13,0.57,1.83c0,0.2,0,0.31,0,0.51c-1.1-0.01-1.65-0.02-2.74-0.03c-1.1-0.01-1.65-0.02-2.74-0.03
				c0.05,0.1,0.08,0.15,0.13,0.25c0.15,0.26,0.38,0.47,0.7,0.64c0.31,0.17,0.64,0.26,0.98,0.26c0.21,0,0.47-0.1,0.77-0.32
				c0.19-0.14,0.29-0.2,0.48-0.34c0.48,0.04,0.71,0.06,1.19,0.09c0.79,0.06,1.2,0.11,1.23,0.12c0.01,0.01,0.02,0.02,0.02,0.03
				c0,0.07-0.12,0.25-0.34,0.53c-0.22,0.28-0.42,0.5-0.61,0.66c-0.5,0.42-1.04,0.68-1.62,0.77c-0.16,0.02-0.37,0.02-0.64,0.02
				c-1.09-0.02-1.87-0.08-2.34-0.17c-0.41-0.08-0.8-0.25-1.16-0.51c-0.36-0.26-0.61-0.55-0.76-0.86c-0.26-0.56-0.39-1.23-0.38-2.01
				c0-0.07,0-0.11,0-0.18c0.02-0.64,0.32-1.21,0.91-1.71c0.2-0.15,0.49-0.3,0.88-0.45s0.73-0.25,1.04-0.28
				c0.12-0.02,0.27-0.04,0.44-0.06C145.52,66.85,145.61,66.84,145.62,66.84z M146.91,68.9c-0.25-0.11-0.55-0.18-0.92-0.18
				c-0.16,0-0.3,0.01-0.42,0.04c-0.19,0.04-0.42,0.14-0.66,0.32c-0.24,0.18-0.36,0.31-0.36,0.4c0,0.03,0.01,0.05,0.02,0.06
				c0.09,0.01,0.2,0.02,0.33,0.02c0.17,0,0.56,0,1.16-0.01c0.57-0.01,0.86-0.02,1.44-0.03c-0.06-0.09-0.09-0.14-0.15-0.24
				C147.26,69.12,147.11,68.99,146.91,68.9z"/>
			<path class="st8" d="M150.9,67.89c0.02-0.98,0.04-1.48,0.06-2.46c0.41,0.02,0.62,0.03,1.04,0.05c0.69,0.05,1.05,0.09,1.09,0.14
				c0.04,0.05,0.07,1.26,0.09,3.65c0.02,2.38,0.04,3.61,0.06,3.66c0.01,0.03,0.02,0.06,0.01,0.08c0,0.05-0.05,0.08-0.13,0.09
				c-0.08,0.02-0.29,0.03-0.61,0.04c-0.79,0.03-1.21,0.05-1.25,0.05c-0.19,0.01-0.28,0.02-0.47,0.03c0-0.58,0.01-0.86,0.01-1.44
				c0-0.29,0.02-0.94,0.04-1.92C150.88,68.88,150.9,68.22,150.9,67.89z"/>
			<path class="st8" d="M162.65,67.87c0.73-0.18,1.58-0.28,2.56-0.3c0.06,0,0.09,0.01,0.16,0.01c0.12,0.01,0.19,0.06,0.21,0.16
				c0.02,0.1,0.05,0.42,0.07,0.95c0.01,0.17,0.01,0.26,0.01,0.43c-0.35,0.01-0.53,0.02-0.88,0.03c-0.77,0.02-1.36,0.12-1.78,0.28
				c-0.42,0.16-0.71,0.41-0.89,0.74c-0.12,0.22-0.22,0.7-0.29,1.41c-0.02,0.23-0.03,0.34-0.05,0.57c-0.05,0.64-0.08,0.96-0.13,1.6
				c-0.25-0.01-0.37-0.02-0.62-0.03c-0.35-0.02-0.77-0.02-1.26,0c-0.27,0-0.41,0.01-0.68,0.01c0.05-0.62,0.08-0.93,0.13-1.55
				c0.06-0.74,0.1-1.61,0.13-2.62c0.03-1.01,0.02-1.6-0.02-1.77c0-0.01,0-0.02-0.01-0.03c-0.01-0.01-0.01-0.02-0.01-0.03
				c0.01-0.06,0.11-0.11,0.31-0.13c0.2-0.02,0.64-0.03,1.33-0.02c0.4,0,0.6-0.01,1-0.01c-0.03,0.1-0.05,0.16-0.08,0.26
				c-0.04,0.1-0.06,0.15-0.1,0.24C162.12,68.01,162.3,67.96,162.65,67.87z"/>
			<path class="st8" d="M170.13,67.81c0.05-0.01,0.17,0,0.34,0.01c0.78,0.05,1.41,0.15,1.88,0.31c0.6,0.2,1.06,0.57,1.39,1.1
				c0.32,0.54,0.46,1.16,0.4,1.86c-0.02,0.2-0.03,0.31-0.05,0.51c-1.09-0.07-1.64-0.1-2.74-0.17c-1.09-0.07-1.64-0.1-2.74-0.16
				c0.04,0.1,0.06,0.15,0.11,0.26c0.13,0.27,0.34,0.49,0.64,0.68c0.3,0.19,0.61,0.29,0.95,0.31c0.21,0.01,0.47-0.08,0.8-0.28
				c0.2-0.13,0.31-0.19,0.51-0.31c0.47,0.06,0.71,0.09,1.18,0.15c0.79,0.1,1.19,0.17,1.21,0.19c0.01,0.01,0.02,0.02,0.02,0.03
				c-0.01,0.07-0.14,0.24-0.39,0.51c-0.25,0.27-0.47,0.48-0.67,0.63c-0.54,0.4-1.1,0.63-1.69,0.69c-0.16,0.01-0.37,0-0.64-0.02
				c-1.08-0.07-1.86-0.17-2.32-0.29c-0.4-0.1-0.77-0.29-1.11-0.57c-0.33-0.28-0.56-0.58-0.68-0.9c-0.21-0.58-0.28-1.25-0.19-2.02
				c0.01-0.07,0.01-0.11,0.02-0.18c0.08-0.63,0.44-1.19,1.07-1.66c0.21-0.14,0.52-0.27,0.92-0.4s0.76-0.21,1.06-0.23
				c0.12-0.01,0.27-0.02,0.44-0.03C170.02,67.82,170.11,67.81,170.13,67.81z M171.22,69.93c-0.23-0.13-0.54-0.2-0.9-0.23
				c-0.16-0.01-0.3,0-0.42,0.01c-0.2,0.03-0.43,0.12-0.69,0.28c-0.26,0.16-0.39,0.29-0.4,0.38c0,0.03,0,0.05,0.01,0.06
				c0.09,0.01,0.2,0.03,0.33,0.03c0.17,0.01,0.56,0.03,1.16,0.05c0.58,0.02,0.86,0.02,1.44,0.04c-0.05-0.1-0.08-0.15-0.13-0.24
				C171.55,70.16,171.41,70.03,171.22,69.93z"/>
			<path class="st8" d="M175.3,69.12c0.12-0.98,0.17-1.47,0.29-2.45c0.41,0.04,0.62,0.06,1.03,0.11c0.69,0.08,1.04,0.15,1.08,0.2
				c0.03,0.05-0.05,1.26-0.25,3.64c-0.2,2.38-0.3,3.6-0.28,3.66c0.01,0.03,0.01,0.06,0.01,0.08c-0.01,0.05-0.05,0.07-0.14,0.09
				c-0.09,0.01-0.29,0.01-0.62,0.01c-0.79-0.01-1.21-0.01-1.25-0.01c-0.19,0-0.28,0-0.47,0.01c0.06-0.57,0.09-0.86,0.15-1.43
				c0.03-0.29,0.1-0.93,0.22-1.91C175.19,70.11,175.27,69.45,175.3,69.12z"/>
			<path class="st8" d="M178.77,69.39c0.13-0.98,0.19-1.47,0.32-2.45c0.41,0.04,0.62,0.07,1.03,0.11c0.68,0.09,1.04,0.15,1.08,0.2
				c0.03,0.05-0.06,1.26-0.3,3.64c-0.23,2.38-0.34,3.6-0.33,3.65c0.01,0.03,0.01,0.06,0.01,0.08c-0.01,0.05-0.05,0.07-0.14,0.09
				c-0.09,0.01-0.29,0.01-0.62,0c-0.79-0.02-1.21-0.02-1.25-0.02c-0.19,0-0.28,0-0.47,0c0.07-0.57,0.1-0.86,0.16-1.43
				c0.03-0.29,0.12-0.93,0.25-1.91C178.64,70.38,178.73,69.72,178.77,69.39z"/>
			<path class="st8" d="M185.85,69.08c0.05,0,0.17,0,0.34,0.02c0.78,0.08,1.4,0.2,1.86,0.37c0.59,0.21,1.03,0.6,1.32,1.15
				c0.29,0.55,0.39,1.17,0.29,1.87c-0.03,0.2-0.05,0.3-0.08,0.51c-1.09-0.1-1.64-0.16-2.73-0.25c-1.09-0.1-1.64-0.15-2.73-0.25
				c0.04,0.1,0.06,0.16,0.09,0.26c0.11,0.27,0.31,0.5,0.6,0.7s0.6,0.31,0.93,0.34c0.21,0.02,0.48-0.06,0.82-0.25
				c0.21-0.12,0.32-0.18,0.53-0.3c0.47,0.08,0.7,0.11,1.17,0.19c0.78,0.13,1.18,0.2,1.2,0.22c0.01,0.01,0.02,0.02,0.01,0.03
				c-0.01,0.07-0.15,0.24-0.42,0.5c-0.26,0.26-0.5,0.46-0.71,0.61c-0.56,0.38-1.14,0.59-1.73,0.63c-0.16,0-0.37-0.01-0.64-0.04
				c-1.08-0.11-1.85-0.23-2.31-0.36c-0.4-0.11-0.76-0.31-1.07-0.6c-0.32-0.29-0.53-0.6-0.63-0.92c-0.18-0.58-0.2-1.26-0.07-2.03
				c0.01-0.07,0.02-0.11,0.03-0.18c0.12-0.63,0.51-1.17,1.17-1.62c0.22-0.13,0.54-0.25,0.95-0.37c0.41-0.12,0.77-0.18,1.08-0.19
				c0.12-0.01,0.27-0.01,0.44-0.02C185.74,69.08,185.83,69.08,185.85,69.08z M186.81,71.23c-0.23-0.13-0.52-0.22-0.89-0.26
				c-0.16-0.02-0.3-0.01-0.42,0c-0.2,0.02-0.44,0.1-0.7,0.26c-0.27,0.16-0.41,0.28-0.42,0.37c0,0.03,0,0.05,0.01,0.06
				c0.09,0.02,0.2,0.03,0.33,0.05c0.17,0.02,0.56,0.04,1.16,0.08c0.57,0.03,0.86,0.05,1.44,0.09c-0.04-0.1-0.07-0.15-0.11-0.25
				C187.13,71.47,187,71.34,186.81,71.23z"/>
			<path class="st8" d="M194.51,69.67c0.25-0.04,0.46-0.05,0.63-0.03c0.46,0.05,0.87,0.24,1.24,0.57c0.36,0.32,0.64,0.75,0.81,1.27
				c0.06,0.18,0.08,0.27,0.14,0.45c-0.18,0.86-0.27,1.3-0.45,2.16c-0.19,0.85-0.28,1.28-0.47,2.13c-0.11,0.01-0.17,0.01-0.28,0.02
				c-0.11,0.01-0.24,0-0.41-0.02c-0.14-0.02-0.34-0.05-0.59-0.1c-0.29-0.06-0.43-0.08-0.72-0.14c0.06-0.22,0.1-0.33,0.16-0.54
				c0.02-0.09,0.03-0.13,0.05-0.22c0.08-0.38,0.16-0.85,0.21-1.41c0.06-0.56,0.08-0.91,0.05-1.04c-0.04-0.16-0.11-0.3-0.19-0.4
				c-0.09-0.1-0.28-0.17-0.54-0.2c-0.22-0.03-0.45-0.01-0.68,0.03c-0.23,0.05-0.41,0.12-0.52,0.22c-0.1,0.1-0.28,0.68-0.52,1.72
				c-0.16,0.64-0.24,0.95-0.4,1.59c-0.38-0.05-0.56-0.08-0.94-0.13c-0.37-0.05-0.55-0.07-0.92-0.11c0.17-1.19,0.26-1.78,0.43-2.97
				c0.2-1.37,0.35-2.33,0.47-2.88c0.01-0.04,0.01-0.07,0.02-0.11c0.05-0.02,0.31-0.03,0.79-0.03c0.15,0,0.34-0.01,0.59-0.01
				c0.24-0.01,0.38-0.01,0.42,0c0.03,0,0.06,0,0.09,0c0.03,0,0.06,0,0.07,0c0.09,0.01,0.13,0.12,0.11,0.32c0,0.13,0,0.19-0.01,0.32
				c0.21-0.08,0.32-0.12,0.53-0.21C194,69.79,194.27,69.7,194.51,69.67z"/>
			<path class="st8" d="M201.21,71.3c0.38-0.04,0.82-0.03,1.33,0.03c1.01,0.13,1.79,0.38,2.36,0.74c0.37,0.24,0.64,0.67,0.81,1.28
				c0.17,0.61,0.18,1.2,0.03,1.76c-0.02,0.07-0.03,0.1-0.04,0.16c-0.33,0.96-1.1,1.55-2.3,1.79c-0.63,0.13-1.39,0.13-2.28,0.02
				c-0.7-0.09-1.34-0.25-1.93-0.46c-0.58-0.21-0.97-0.46-1.17-0.72c-0.38-0.53-0.49-1.13-0.34-1.78c0.12-0.54,0.41-1.06,0.86-1.55
				C199.21,71.83,200.12,71.41,201.21,71.3z M202.86,73.24c-0.25-0.16-0.54-0.27-0.85-0.31c-0.14-0.02-0.26-0.02-0.36,0.01
				c-0.36,0.09-0.69,0.25-1.01,0.49c-0.32,0.24-0.51,0.48-0.56,0.69c-0.06,0.26,0.02,0.56,0.24,0.88c0.23,0.32,0.49,0.53,0.8,0.62
				c0.04,0.01,0.09,0.03,0.17,0.04c0.32,0.04,0.69-0.01,1.1-0.17c0.41-0.16,0.74-0.37,1-0.64c0.12-0.11,0.19-0.21,0.21-0.29
				c0.02-0.08,0.02-0.17-0.02-0.26C203.53,73.89,203.28,73.54,202.86,73.24z"/>
		</g>
	</g>
</g>
</svg>
