<svg version="1.1" xmlns="http://www.w3.org/2000/svg" xmlns:xlink="http://www.w3.org/1999/xlink" x="0px" y="0px"
	 width="167.66px" height="166.96px" viewBox="0 0 167.66 166.96" style="enable-background:new 0 0 167.66 166.96;"
	 xml:space="preserve">
<style type="text/css">
	.st0{fill:#FBB547;}
</style>
<defs>
</defs>
<g>
	<path class="st0" d="M83.83,0C37.53,0,0,37.53,0,83.83c0,41.52,30.22,75.91,69.85,82.57v-65.08H49.63V77.9h20.22V60.63
		c0-20.04,12.24-30.96,30.11-30.96c8.56,0,15.92,0.64,18.06,0.92v20.94l-12.4,0.01c-9.72,0-11.59,4.62-11.59,11.4v14.95h23.19
		l-3.03,23.42H94.03v65.65c41.48-5.05,73.63-40.31,73.63-83.15C167.66,37.53,130.13,0,83.83,0z"/>
</g>
</svg>
