<svg version="1.1" xmlns="http://www.w3.org/2000/svg" xmlns:xlink="http://www.w3.org/1999/xlink" x="0px" y="0px" width="167px"
	 height="167px" viewBox="0 0 167 167" style="enable-background:new 0 0 167 167;" xml:space="preserve">
<style type="text/css">
	.st0{fill:#FBB547;}
</style>
<defs>
</defs>
<path class="st0" d="M121.79,0H45.21C20.28,0,0,20.28,0,45.21v76.59C0,146.72,20.28,167,45.21,167h76.59
	c24.93,0,45.2-20.28,45.2-45.2V45.21C167,20.28,146.72,0,121.79,0z M83.5,129.16c-25.18,0-45.66-20.48-45.66-45.66
	S58.32,37.84,83.5,37.84s45.66,20.48,45.66,45.66S108.68,129.16,83.5,129.16z M130.25,48.61c-7.44,0-13.49-6.05-13.49-13.49
	s6.05-13.49,13.49-13.49s13.49,6.05,13.49,13.49S137.7,48.61,130.25,48.61z"/>
<path class="st0" d="M83.5,47.63c-19.78,0-35.87,16.09-35.87,35.87c0,19.78,16.09,35.87,35.87,35.87
	c19.78,0,35.87-16.09,35.87-35.87C119.37,63.72,103.28,47.63,83.5,47.63z"/>
<path class="st0" d="M130.25,31.41c-2.04,0-3.7,1.66-3.7,3.7s1.66,3.7,3.7,3.7c2.04,0,3.7-1.66,3.7-3.7S132.3,31.41,130.25,31.41z"
	/>
</svg>
