<?xml version="1.0" encoding="utf-8"?>
<!-- Generator: Adobe Illustrator 24.0.2, SVG Export Plug-In . SVG Version: 6.00 Build 0)  -->
<svg version="1.1" id="Layer_1" xmlns="http://www.w3.org/2000/svg" xmlns:xlink="http://www.w3.org/1999/xlink" x="0px" y="0px"
	 viewBox="0 0 167 167" style="enable-background:new 0 0 167 167;" xml:space="preserve">
<style type="text/css">
	.st0{fill:#FBB547;}
</style>
<path class="st0" d="M142.5,24.4C109.9-8.2,57-8.1,24.4,24.5s-32.6,85.5,0,118.1s85.5,32.6,118.1,0c15.7-15.7,24.4-36.9,24.4-59
	C167,61.3,158.2,40.1,142.5,24.4z M126.4,116.3C126.4,116.3,126.4,116.3,126.4,116.3L126.4,116.3l-4.2,4.2c-5.5,5.5-13.4,7.8-21,6
	c-7.6-2-14.9-5.3-21.5-9.6c-6.1-3.9-11.8-8.5-16.9-13.7c-4.7-4.7-9-9.8-12.7-15.4c-4-5.9-7.2-12.4-9.5-19.3
	c-2.6-8-0.4-16.8,5.6-22.7l5-5c1.4-1.4,3.6-1.4,5,0c0,0,0,0,0,0l15.6,15.6c1.4,1.4,1.4,3.6,0,5c0,0,0,0,0,0l-9.2,9.2
	c-2.6,2.6-3,6.7-0.8,9.7c3.3,4.6,7,8.8,11,12.8c4.5,4.5,9.3,8.5,14.5,12.2c3,2.1,7,1.7,9.6-0.8l8.9-9c1.4-1.4,3.6-1.4,5,0
	c0,0,0,0,0,0l15.7,15.7C127.8,112.7,127.8,114.9,126.4,116.3z"/>
</svg>
